<svg width="100%" height="100%" viewBox="0 0 1440 1008" fill="none" xmlns="http://www.w3.org/2000/svg">
<path d="M1490.77 717.969C1455.24 642.679 1483.54 531.55 1498.3 520.558C1403.15 556.396 1389 658.641 1392.46 703.965C1360.55 641.926 1310.72 565.281 1301.99 469.812C1301.23 460.777 1300.48 451.592 1300.48 442.105C1300.48 441.804 1300.48 441.804 1300.48 441.503C1300.48 368.772 1331.79 326.61 1374.55 306.131C1272.03 306.281 1226.71 388.8 1222.8 439.094C1186.22 379.915 1126.15 330.676 1104.93 272.1C1100.56 260.053 1097.55 247.705 1097.1 234.756C1096.19 215.331 1100.41 159.465 1146.93 130.403C1083.7 141.395 1057.35 182.805 1047.27 225.871C1045.46 234.605 1043.65 243.339 1043.05 251.922C1042.15 259.15 1042 265.625 1041.85 272.1C1041.4 276.316 1041.4 280.683 1041.55 284.748C1042.9 346.336 1067.74 402.503 1089.12 441.955C1100.41 462.735 1110.95 478.696 1116.22 488.183C1101.16 474.028 1087.61 458.218 1075.42 441.955C1038.84 391.962 1016.56 333.235 1014.75 274.057C1014 273.455 1013.39 272.702 1012.64 272.1C1005.72 266.076 999.093 259.752 992.62 253.729C983.135 244.393 974.705 235.207 966.576 226.022C888.594 135.975 886.637 56.9196 917.047 0C916.896 0.451743 916.595 0.752904 916.294 1.05407C890.551 25.7493 874.142 59.3289 865.561 92.3061C860.141 111.882 857.733 131.307 857.733 148.322C857.733 386.24 1145.42 453.098 1145.42 675.656C1241.47 676.259 1261.34 747.634 1260.59 771.877C1259.83 799.584 1246.74 836.477 1206.99 856.805C1280.16 856.805 1307.86 905.141 1307.86 942.787C1307.86 983.444 1275.79 1013.56 1236.8 1013.56C1179.75 1013.56 1159.72 964.019 1169.96 941.431C1166.8 960.254 1186.82 995.64 1221.14 994.135C1265.86 992.177 1275.79 956.038 1274.89 939.474C1271.58 877.284 1222.35 864.786 1184.26 866.442C1148.58 867.797 1110.19 862.828 1097.4 830.754C1120.28 857.407 1155.96 854.697 1176.43 850.33C1194.8 846.716 1230.63 821.268 1225.36 774.588C1218.13 711.193 1153.85 693.274 1120.73 698.846C1120.73 445.418 778.998 376.302 778.998 229.485C778.998 191.539 814.527 155.399 822.656 147.268C748.739 184.612 737.9 239.725 737.9 274.81C737.9 483.967 977.114 549.62 977.114 693.726C977.114 753.055 941.284 771.727 923.069 780.611C929.542 771.576 932.101 754.109 931.951 740.105C931.499 698.545 900.939 666.621 862.399 662.104C821 657.587 763.041 693.425 769.364 777.901C771.622 808.167 789.386 865.238 838.162 899.721C828.678 913.122 822.807 929.837 822.807 948.358C822.807 955.586 823.86 962.362 825.516 969.138C804.139 948.659 782.461 936.011 766.503 928.632C788.784 912.972 805.946 887.674 805.946 887.674C775.235 863.732 735.642 819.31 735.642 750.645C735.642 662.104 800.827 624.76 850.958 628.223C897.175 631.386 936.166 664.664 941.736 708.483C953.629 634.247 869.023 572.659 805.343 500.079C735.642 420.723 688.07 309.444 742.868 208.705C722.846 226.775 691.081 274.509 682.5 302.969C674.07 274.509 642.154 226.775 622.283 208.705C677.08 309.444 629.659 420.723 559.656 500.079C495.977 572.508 411.522 634.096 423.565 708.483C429.135 664.664 467.825 631.386 514.042 628.223C564.022 624.911 629.509 662.255 629.509 750.645C629.509 819.16 589.765 863.581 559.205 887.674C559.205 887.674 576.367 912.972 598.497 928.632C582.69 936.011 560.861 948.659 539.484 969.138C541.29 962.362 542.344 955.737 542.344 948.358C542.344 929.987 536.322 913.122 526.838 899.721C575.765 865.087 593.378 808.017 595.636 777.901C601.809 693.425 544 657.587 502.6 662.104C464.061 666.471 433.802 698.545 433.049 740.105C432.899 754.109 435.458 771.576 441.781 780.611C423.716 771.727 388.187 753.205 388.187 693.726C388.187 549.62 627.1 483.967 627.1 274.81C627.1 239.725 616.411 184.612 542.494 147.268C550.624 155.55 586.152 191.539 586.152 229.485C586.152 376.151 244.569 445.268 244.569 698.846C211.449 693.274 147.167 711.193 139.941 774.588C134.672 821.268 170.802 846.716 188.717 850.33C209.342 854.697 244.87 857.407 267.602 830.754C254.806 862.828 216.417 867.797 180.588 866.442C142.952 864.936 93.423 877.435 90.1111 939.474C89.2078 956.038 99.2942 992.177 143.855 994.135C178.028 995.64 198.201 960.254 194.889 941.431C205.126 964.019 185.104 1013.56 128.199 1013.56C89.2078 1013.56 56.9915 983.444 56.9915 942.787C56.9915 905.141 84.842 856.805 157.705 856.805C118.263 836.477 105.015 799.735 104.112 771.877C103.359 747.634 123.08 676.259 219.277 675.656C219.277 453.098 506.966 386.24 506.966 148.322C506.966 131.307 504.557 111.882 499.138 92.3061C490.557 59.63 474.148 26.5022 449.157 1.65639C448.706 1.20465 448.254 0.602323 447.652 0C478.062 56.9196 475.804 135.975 397.672 226.022C386.531 238.821 373.886 251.922 359.283 265.323C356.874 267.582 354.616 269.841 352.057 272.25C351.304 272.852 350.551 273.605 349.799 274.208C348.143 333.235 325.712 392.113 289.13 442.105C276.936 458.368 263.387 474.179 248.332 488.334C253.451 478.847 263.989 462.886 275.43 442.105C296.657 402.653 321.346 346.487 322.851 284.899C322.851 280.833 322.55 276.466 322.55 272.25C322.249 259.601 321.346 246.651 318.787 233.25C318.185 230.84 317.733 228.582 317.131 226.022C307.044 182.956 280.85 141.546 217.772 130.554C264.29 159.465 268.355 215.481 267.602 234.906C266.849 247.856 263.989 260.204 259.774 272.25C238.246 330.826 178.33 380.066 141.747 439.244C137.833 388.95 92.8208 306.432 -10.0004 306.281C32.7539 326.76 64.067 368.923 64.067 441.654C64.067 441.955 64.067 441.955 64.067 442.256C63.9165 550.825 7.01102 636.355 -27.9151 704.116C-24.1515 658.791 -38.3026 556.547 -133.747 520.709C-118.843 531.701 -90.5412 642.83 -126.069 718.12C-196.223 866.442 -281.129 922.308 -272.849 1060.84C-267.279 1151.34 -211.428 1250.88 -87.0787 1285.81C-92.3477 1412.15 -10.0004 1477.2 64.5187 1499.48C84.9926 1505.66 104.864 1508.82 122.327 1508.82C204.675 1508.82 252.849 1464.25 273.624 1441.36C268.204 1471.33 199.707 1557.16 90.1111 1535.77C149.425 1610.16 228.16 1612.87 255.86 1612.42C255.709 1618.74 255.408 1625.07 255.408 1631.54C255.408 1734.69 291.689 1829.11 352.358 1903.19C375.993 1932.1 403.392 1957.85 433.802 1979.84C504.557 2030.88 591.12 2061 685.059 2061C778.998 2061 865.862 2030.73 936.617 1979.54C967.178 1957.55 994.426 1931.65 1018.36 1902.44C1078.58 1828.65 1114.56 1734.09 1114.56 1631.39C1114.56 1624.77 1114.41 1618.59 1114.26 1612.27C1145.87 1612.12 1218.59 1605.34 1274.14 1535.62C1164.39 1557.01 1096.04 1471.17 1090.77 1441.21C1111.7 1464.25 1159.72 1508.67 1242.07 1508.67C1259.99 1508.67 1280.46 1505.36 1301.69 1498.88C1375.75 1475.99 1456.59 1410.79 1451.48 1285.66C1575.67 1250.72 1631.68 1151.19 1637.1 1060.69C1645.68 922.157 1560.92 866.292 1490.77 717.969ZM-48.9912 1136.89C-97.4662 1105.72 -169.878 1021.24 -47.7868 808.167C-121.704 980.281 -74.5836 1057.83 -21.2912 1095.78C-38.3026 1117.31 -48.9912 1136.89 -48.9912 1136.89ZM680.844 543.898C666.843 543.898 637.487 549.469 620.928 556.848C641.251 528.388 669.854 476.287 680.844 440.449C691.533 476.287 720.286 528.388 740.61 556.848C724.05 549.469 694.694 543.898 680.844 543.898ZM1413.39 1136.89C1413.39 1136.89 1402.7 1117.31 1385.84 1095.78C1439.28 1057.83 1486.1 980.281 1412.34 808.167C1534.28 1021.39 1461.86 1105.72 1413.39 1136.89Z" fill="white" fill-opacity="0.05"/>
</svg>