<svg width="120" height="120" viewBox="0 0 113 133" fill="none" xmlns="http://www.w3.org/2000/svg"><g clip-path="url(#a)" fill="#BF9517"><path d="M7.426 71.915h21.34v8.47h2.99V69.38H7.425v2.535zm21.34-17.77h-5.837v2.535h5.835v3.368l-5.836.853v2.568l5.835-.843v5.486h2.99V50.76h-2.99v3.387zm-14.94 12.56c4.948 0 8.252-3.194 8.252-7.974 0-4.79-3.304-7.972-8.252-7.972s-8.253 3.184-8.253 7.973c0 4.776 3.305 7.974 8.253 7.974zm0-13.412c3.162 0 5.268 2.17 5.268 5.438 0 3.256-2.107 5.43-5.268 5.43-3.162 0-5.268-2.17-5.268-5.43 0-3.268 2.106-5.437 5.268-5.437zm52.152-2.535h-2.985v29.627h2.985V65.15h4.694v-2.544h-4.694V50.758zm-22.332.56-3.272 27.66h2.976l2.975-25.117h6.595l2.976 25.118h2.966L55.6 51.318H43.646zm38.594 19.19h-2.986v9.877h24.042V77.85H82.24v-7.342zm20.482-10.725v-9.025h-2.984v22.995h2.984v-11.43h4.695v-2.54h-4.695zm-4.408 5.784h-11.38v-6.623h-2.99v6.623h-7.116v2.544h21.486v-2.543z"/><path d="M92.76 62.606h2.985v-11.29h-17.35v2.545H92.76v8.746zm6.022-50.11a27.933 27.933 0 0 1-6.318-10.213L79.078 27.267a41.776 41.776 0 0 1 3.61 3.965l16.094-18.735zm-11.19 26.14 21.578-18.93c-4.122-1.894-7.26-4.16-9.662-6.48L83.333 32.05a48.476 48.476 0 0 1 4.26 6.586zm-57.94-6.604L13.517 13.26c-2.422 2.355-5.574 4.567-9.686 6.462l21.55 18.905c1.28-2.364 2.698-4.567 4.274-6.595zm4.256-4.79L20.522 2.25c-1.147 3.236-2.985 6.87-6.28 10.284l16.056 18.674a42.386 42.386 0 0 1 3.61-3.965zm21.897 85.61c.225-.018.46-.018.697-.018.387 0 .78.02 1.166.062a11.584 11.584 0 0 0-7.608-2.82H8.6V86.714H6.9v24.207c0 .464.382.843.85.843.01 0 .014-.004.02-.004h42.284c1.73 0 3.343.434 4.757 1.207.33-.052.655-.09.994-.114zm-4.245 1.138a17.277 17.277 0 0 0-1.505-.062H7.75a.842.842 0 1 0 0 1.687h41.417a11 11 0 0 1 2.392-1.625zM6.9 118.433a.84.84 0 0 0 .37.692h39.28c.257-.535.554-1.047.888-1.53H7.75a.84.84 0 0 0-.85.838zm98.35-4.505H62.944c-.51 0-1.013.02-1.504.062.85.436 1.648.976 2.374 1.625h41.435c.457 0 .85-.375.85-.844a.858.858 0 0 0-.85-.842zm0 3.662H65.56l.88 1.53h39.29a.83.83 0 0 0 .367-.69.858.858 0 0 0-.85-.84zM2.564 128.244v.872h44.41a10.824 10.824 0 0 1-.45-.872H2.565zm63.446.872h44.425v-.872h-43.96c-.15.294-.302.587-.464.872z"/><path d="M3.59 86.514h52.397v22.08c0 .28.23.507.51.507a.51.51 0 0 0 .512-.506v-22.08h47.417v23.558H62.94c-1.877 0-3.653.44-5.23 1.232.512.365.99.767 1.43 1.208a9.868 9.868 0 0 1 3.8-.75h42.304c.01 0 .02.006.03.006.467 0 .85-.38.85-.843V86.52h3.28v32.61h1.022V0H2.566v119.125h1.02v-32.61h.005zm105.82-50.25L96.276 42.59h-2.34l15.478-7.457v1.128h-.004zM16.73 42.59 3.592 36.268V35.14l15.48 7.452h-2.34zm5.445-41.578 13.277 24.8c1.872-1.626 3.825-3.014 5.86-4.15L33.05 1.013h1.103l8.06 20.156a30.9 30.9 0 0 1 4.662-2.018l.234-.08h.01L43.994 1.014h2.077l3.023 17.466a26.2 26.2 0 0 1 1.552-.356c.115-.02.225-.028.34-.06.44-.08.878-.153 1.327-.214.244-.043.502-.072.755-.1.314-.028.624-.06.94-.09.276-.02.553-.043.826-.06.348-.02.706-.03 1.065-.03h.134V1.014h1.022v16.542c.378.01.745.02 1.128.043.224.008.448.027.673.05.4.03.797.07 1.184.124l.512.06c1.127.153 2.24.366 3.343.65L66.918 1.02h2.068l-3.114 18.054a31.867 31.867 0 0 1 4.91 2.09l8.062-20.148h1.103l-8.253 20.64a36.13 36.13 0 0 1 5.85 4.16l13.277-24.8h18.59v21.2l-20.853 18.29c.34.676.64 1.382.946 2.088H57.677v-3.217h.998v-1.44h-.43a3.223 3.223 0 0 0 1.524-2.733c0-.16-.01-.327-.044-.48a3.824 3.824 0 0 1-3.228 1.764 3.824 3.824 0 0 1-3.23-1.763 2.617 2.617 0 0 0-.042.48 3.23 3.23 0 0 0 1.52 2.732h-.426v1.44h.998v3.217h-31.87c.31-.71.617-1.426.956-2.108L3.59 22.217V1.014h18.584zM3.59 43.924h105.823v41.274H3.59V43.923z"/><path d="M55.046 34.605c.473.24 1.027.42 1.562.635.042-.062.057-.072.052-.076-.038-.062-.08-.123-.12-.19-.42-.753-.425-1.506.077-2.25.124-.18.29-.37.683-.36.382.01.578.204.635.39.12.373.215.76.206 1.14-.004.308-.176.616-.272.924.483-.237 2.33-1.213 2.593-2.88.107-.668-.04-1.42-.18-2.113a8.81 8.81 0 0 0-.54-1.78c-.22-.513-.463-.93-.644-1.242-.163-.275-.24-.412-.35-.555a3.252 3.252 0 0 0-1.14-.914c.238.507.396 1.01.277 1.516-.082.346-.3.682-.51 1.014-.054.085-.36.194-.45.166-.153-.043-.315-.185-.315-.285 0-.364 0-.734.12-1.084.27-.824.166-1.6-.574-2.325-.062-.062-.144-.12-.21-.176.13.65.08 1.27-.105 1.89-.326 1.103-1.1 2.093-2.112 3.027-.664.615-1.108 1.283-1.213 2.018-.196 1.44.725 2.596 2.53 3.51zm-9.49 88.404c.02-.285.053-.57.09-.844H0v3.032h45.638c-.1-.72-.12-1.45-.082-2.19zm21.792-.844c.062.498.1 1.014.1 1.53 0 .507-.028 1.005-.1 1.502H113v-3.032H67.348zm-41.3-33.146-5.66 2.6.167.53 2.283-.865v13.44h-2.254v.558h8.453v-.56h-1.973V89.02h-1.017zm9.34 12.952c.235-.327.22-.853-.042-1.578-.206-.45-.554-.748-1.04-.91-.49-.156-1.014-.122-1.578.114-.563.233-.93.66-1.098 1.27-.167.616-.124 1.26.14 1.928.3.933.935 1.634 1.9 2.108.964.474 1.93.71 2.89.71 2.61 0 4.593-.748 5.96-2.25 1.365-1.5 2.043-3.58 2.043-6.243 0-5.513-2.42-8.27-7.27-8.27-1.99 0-3.533.464-4.63 1.397-1.1.933-1.65 2.15-1.65 3.662 0 1.51.52 2.652 1.563 3.424 1.04.772 2.33 1.16 3.873 1.16 1.537 0 2.75-.374 3.633-1.117v1.87c0 .242-.01.63-.028 1.16-.02.532-.053.916-.1 1.148-.048.232-.11.55-.182.952-.077.403-.172.692-.296.867-.124.175-.272.393-.45.644a1.526 1.526 0 0 1-.62.53 5.805 5.805 0 0 1-.817.28 4.39 4.39 0 0 1-1.14.128c-.45 0-.932-.09-1.44-.265-.505-.174-.8-.41-.887-.7-.086-.29.048-.616.396-.976a12.1 12.1 0 0 0 .87-1.042zm2.27-4.373c-.884 0-1.553-.347-2.016-1.033-.46-.687-.688-1.62-.688-2.795 0-2.904.77-4.36 2.312-4.36.94 0 1.638.575 2.096 1.72.46 1.148.697 2.967.716 5.463-.735.668-1.542 1.004-2.42 1.004zm29.748 3.742c0 1.525.66 2.624 1.972 3.283 1.313.658 2.89.99 4.718.99 1.83 0 3.382-.427 4.647-1.284 1.266-.857 1.9-1.965 1.9-3.325 0-1.767-1.27-3.48-3.8-5.14 2.082-.653 3.128-1.78 3.128-3.382 0-.985-.55-1.828-1.647-2.53-1.098-.696-2.526-1.046-4.284-1.046-1.758 0-3.096.402-4.013 1.203-.92.8-1.38 1.78-1.38 2.932 0 1.564.798 3.008 2.393 4.33-1.108.317-1.992.83-2.65 1.54-.655.71-.984 1.52-.984 2.43zm4.546-11.355c.42-.346 1.036-.517 1.844-.517.807 0 1.51.28 2.1.84.593.558.89 1.264.89 2.12 0 1.34-.187 2.36-.564 3.047-.3-.185-.87-.52-1.705-1.004a19.115 19.115 0 0 1-2.154-1.426c-.698-.54-1.04-1.08-1.04-1.62 0-.616.21-1.1.63-1.44zm-.24 7.892c.488.354 1.295.866 2.423 1.534 1.127.672 1.94 1.23 2.435 1.677.497.446.745.915.745 1.398 0 .782-.267 1.407-.802 1.87-.535.465-1.227.698-2.082.698-.854 0-1.66-.332-2.42-.99-.76-.66-1.142-1.52-1.142-2.587 0-1.057.282-2.26.845-3.6zm13.832 5c.34-.075.65-.26.93-.558.283-.298.42-.7.42-1.217 0-.512-.18-.943-.548-1.298-.367-.355-.878-.53-1.533-.53-.66 0-1.19.23-1.59.7-.406.465-.607 1.07-.607 1.815 0 1.193.454 2.146 1.366 2.866.912.715 2.183 1.075 3.816 1.075 2.345 0 4.165-.44 5.45-1.326 1.284-.886 1.93-2.118 1.93-3.7 0-1.284-.53-2.302-1.59-3.046-1.06-.743-2.447-1.126-4.157-1.146 1.52-.075 2.69-.464 3.507-1.174.817-.706 1.227-1.573 1.227-2.596 0-2.573-2.14-3.856-6.423-3.856-1.446 0-2.597.355-3.447 1.06-.855.71-1.28 1.574-1.28 2.597 0 .71.186 1.265.563 1.677.378.412.855.616 1.438.616s1.03-.157 1.35-.474a1.55 1.55 0 0 0 .48-1.147c0-.445-.116-.8-.354-1.06a1.505 1.505 0 0 0-.788-.49 2.88 2.88 0 0 1-.788-.292c-.234-.128-.354-.34-.354-.63s.206-.564.62-.825c.417-.26 1.023-.393 1.83-.393.807 0 1.476.308 2 .924.527.617.79 1.38.79 2.294 0 .914-.264 1.73-.79 2.444-.524.715-1.39 1.075-2.592 1.075h-.45v.56h.45c1.557 0 2.636.317 3.224.952.592.634.888 1.615.888 2.946 0 1.332-.34 2.39-1.013 3.175-.678.782-1.556 1.175-2.645 1.175-.698 0-1.31-.123-1.844-.365-.535-.242-.802-.554-.802-.938-.005-.388.434-.682 1.318-.886zM62.91 116.933c-1.9-1.777-4.397-2.667-7.014-2.506-4.695.293-8.458 4.026-8.754 8.683-.153 2.595.735 5.072 2.526 6.958a9.473 9.473 0 0 0 6.83 2.932h7.32a1.272 1.272 0 0 0 .907-2.17l-1.102-1.094a9.152 9.152 0 0 0 2.24-6.035 9.253 9.253 0 0 0-2.952-6.768zm.43 14.595H56.5a7.876 7.876 0 0 1-5.76-2.464 7.714 7.714 0 0 1-2.116-5.864c.244-3.928 3.415-7.07 7.365-7.315.17-.01.348-.01.51-.01a7.84 7.84 0 0 1 5.402 2.122c1.604 1.502 2.482 3.52 2.482 5.7a7.728 7.728 0 0 1-2.31 5.537l-.52.516 1.79 1.777z"/><path d="M52.018 122.645c-.583 0-1.065.478-1.065 1.056a1.064 1.064 0 1 0 2.13 0c0-.582-.468-1.055-1.065-1.055zm4.48 0a1.06 1.06 0 1 0 0 2.122 1.07 1.07 0 0 0 1.065-1.066c0-.582-.483-1.055-1.065-1.055zm4.47 0c-.583 0-1.065.478-1.065 1.056a1.064 1.064 0 1 0 2.13 0c0-.582-.473-1.055-1.065-1.055z"/></g><defs><clipPath id="a"><path fill="#fff" d="M0 0h113v133H0z"/></clipPath></defs></svg>