<svg width="30" height="19" viewBox="0 0 30 19" fill="none" xmlns="http://www.w3.org/2000/svg">
<g clip-path="url(#clip0_108_537)">
<path d="M25.5346 0.5H4.40546C2.45956 0.5 0.883057 2.08582 0.883057 4.0432V14.9568C0.883057 16.9142 2.45956 18.5 4.40546 18.5H25.5346C27.4791 18.5 29.057 16.9142 29.057 14.9568V4.0432C29.057 2.08582 27.4791 0.5 25.5346 0.5ZM7.97667 16.0158H4.22736V3.08773L7.62706 3.10498C9.78932 3.10498 11.5518 4.70142 11.5518 6.64819C11.5518 7.22678 11.412 7.77086 11.1152 8.26187C12.2141 9.08729 12.8764 10.279 12.8764 11.6299C12.8764 14.069 10.6798 16.0158 7.97667 16.0158ZM19.6256 16.0158H16.6784V7.80669L15.8064 8.89354L13.5215 7.0171L16.6784 3.10498H19.6256V16.0158ZM26.3908 16.0158H23.4436V7.80669L22.5729 8.89354L20.2879 7.0171L23.4436 3.10498H26.3908V16.0158Z" fill="#C19718"/>
<path d="M7.97667 10.21H7.17456V13.0339H7.97667C9.02283 13.0339 9.92916 12.385 9.92916 11.6299C9.92916 10.8589 9.02283 10.21 7.97667 10.21Z" fill="#C19718"/>
<path d="M8.60463 6.64817C8.60463 6.41992 8.23788 6.06958 7.62706 6.06958H7.17456V7.24534H7.64421C8.22073 7.22676 8.60463 6.91092 8.60463 6.64817Z" fill="#C19718"/>
</g>
<defs>
<clipPath id="clip0_108_537">
<rect width="28.1739" height="18" fill="white" transform="translate(0.883057 0.5)"/>
</clipPath>
</defs>
</svg>
