<svg width="7" height="19" viewBox="0 0 7 19" fill="none" xmlns="http://www.w3.org/2000/svg">
<g clip-path="url(#clip0_108_544)">
<path d="M2.03863 15.9014L1.00952 18.3C1.65527 18.4124 2.4363 18.5003 3.32318 18.4999C4.2072 18.4995 4.98577 18.4124 5.62988 18.3C5.28658 17.5002 4.94368 16.7008 4.60078 15.9014H2.03863Z" fill="#C19718"/>
<path d="M3.27655 0.499948C1.9074 0.505261 0.804316 0.79503 0.0870462 1.04393C0.0858201 1.49881 0.0931767 1.92958 0.107073 2.33788C1.1607 2.09225 2.24213 1.96759 3.32355 1.96718H3.32968C4.41233 1.96718 5.49497 2.09184 6.54983 2.33706C6.55514 1.92917 6.55228 1.49881 6.53961 1.04393C5.81376 0.792169 4.68248 0.494635 3.27655 0.499948Z" fill="#C19718"/>
<path d="M2.61945 13.392H2.41919V15.7788H2.61945V13.392Z" fill="#C19718"/>
<path d="M2.29648 13.392H2.12646V15.7788H2.29648V13.392Z" fill="#C19718"/>
<path d="M4.51298 13.392H4.35522V15.7788H4.51298V13.392Z" fill="#C19718"/>
<path d="M2.9418 13.392H2.74194V15.7788H2.9418V13.392Z" fill="#C19718"/>
<path d="M3.26472 13.392H3.06445V15.7788H3.26472V13.392Z" fill="#C19718"/>
<path d="M3.58706 13.392H3.38721V15.7788H3.58706V13.392Z" fill="#C19718"/>
<path d="M4.23249 13.392H4.03223V15.7788H4.23249V13.392Z" fill="#C19718"/>
<path d="M3.90957 13.392H3.70972V15.7788H3.90957V13.392Z" fill="#C19718"/>
<path d="M3.32363 2.09387C2.24384 2.09428 1.16365 2.22016 0.112061 2.46661C0.215871 5.13379 0.624163 6.81764 1.01856 7.90355C1.1804 8.34985 1.70804 9.70919 1.9459 11.6129C2.03214 12.3028 2.05707 12.8791 2.06402 13.2694H4.57589C4.58529 12.8917 4.61349 12.3335 4.70136 11.6661C4.95516 9.73658 5.51263 8.36457 5.68183 7.91663C6.09013 6.83644 6.50046 5.153 6.54746 2.46702C5.49383 2.21975 4.412 2.09387 3.32976 2.09387H3.32363ZM5.18731 5.07575C5.18731 6.06113 4.38544 6.863 3.39965 6.863C2.41427 6.863 1.6124 6.06113 1.6124 5.07575C1.6124 4.08997 2.41427 3.2881 3.39965 3.2881C4.38544 3.2881 5.18731 4.08997 5.18731 5.07575Z" fill="#C19718"/>
<path d="M3.3995 6.74045C4.31744 6.74045 5.06455 5.99376 5.06455 5.07581C5.06455 4.15787 4.31744 3.41077 3.3995 3.41077C2.48156 3.41077 1.73486 4.15787 1.73486 5.07581C1.73486 5.99376 2.48156 6.74045 3.3995 6.74045Z" fill="#C19718"/>
</g>
<defs>
<clipPath id="clip0_108_544">
<rect width="6.65896" height="18" fill="white" transform="translate(0 0.5)"/>
</clipPath>
</defs>
</svg>
