<svg width="18" height="21" viewBox="0 0 18 21" fill="none" xmlns="http://www.w3.org/2000/svg">
<path d="M9.07918 19.6651C6.94629 19.6651 5.2168 18.9267 5.2168 18.0168V19.3517C5.2168 20.2626 6.94629 20.9999 9.07918 20.9999C11.2121 20.9999 12.9416 20.2621 12.9416 19.3517V18.0168C12.9416 18.9272 11.2121 19.6651 9.07918 19.6651Z" fill="#C19718"/>
<path d="M9.00025 0C4.02941 0 0 4.07629 0 9.10445C0 12.852 2.23868 16.0707 5.43649 17.4675C5.51849 17.5033 5.6015 17.5376 5.68501 17.5709C5.66578 17.5909 5.64755 17.6114 5.63035 17.6318C5.52355 17.7609 5.4699 17.8904 5.4699 18.0169C5.4699 18.6754 6.95189 19.4096 9.07921 19.4096C11.206 19.4096 12.6885 18.6754 12.6885 18.0169C12.6885 17.8766 12.6222 17.7332 12.4916 17.5909C12.4714 17.5689 12.4496 17.5474 12.4268 17.5253C12.5109 17.49 12.5949 17.4542 12.6774 17.4168C15.8145 15.9949 18 12.808 18 9.10445C18 4.07629 13.9706 0 9.00025 0ZM2.65118 9.10445C2.65118 5.02663 5.3798 1.61802 9.02404 0.781362C10.7945 1.18792 12.3484 2.20123 13.4791 3.60317C12.273 3.77624 10.7328 4.15566 9.09338 4.98515C8.30026 5.38607 7.60583 5.83154 7.002 6.28264C7.12701 5.62724 7.29404 5.0384 7.4717 4.52483C7.24545 4.73733 7.01516 4.97952 6.78992 5.25499C6.14307 6.04659 5.73815 6.87046 5.48053 7.59396C5.03917 8.03175 4.68942 8.43574 4.42319 8.76446C4.52746 8.98208 4.66007 9.23656 4.8271 9.51459C4.64843 10.0573 4.48342 10.6749 4.36347 11.361C4.1848 12.382 4.14785 13.3026 4.17417 14.0727C3.21503 12.6749 2.65118 10.959 2.65118 9.10445ZM11.1154 16.616C10.5243 16.4588 9.82628 16.3682 9.07921 16.3682C8.30026 16.3682 7.57495 16.4665 6.96859 16.6359C5.93909 16.0625 5.0417 15.2632 4.33512 14.3011C4.53454 13.4127 4.8605 12.3523 5.40612 11.2197C5.49369 11.0369 5.58327 10.8612 5.67387 10.6912C5.89101 10.9462 6.13649 11.2043 6.41335 11.4578C7.23482 12.2099 8.05326 12.6682 8.65456 12.9442C8.27292 12.5172 7.77134 11.8587 7.37098 10.956C7.02224 10.17 6.86483 9.45622 6.78992 8.92729C7.52231 7.99232 8.70315 6.70046 10.4397 5.53968C11.6089 4.75781 12.7341 4.23349 13.6912 3.87762C14.7602 5.32104 15.3969 7.13466 15.3969 9.10445C15.3969 9.53354 15.367 9.95545 15.3083 10.3671C14.8872 9.71685 14.1609 9.28776 13.3349 9.28776C12.0321 9.28776 10.9762 10.3559 10.9762 11.6733C10.9762 12.9913 12.0321 14.0594 13.3349 14.0594C13.5434 14.0594 13.7448 14.0323 13.9372 13.9811C13.2083 15.0753 12.2416 15.9811 11.1154 16.616Z" fill="#C19718"/>
</svg>
