<svg width="19" height="19" viewBox="0 0 19 19" fill="none" xmlns="http://www.w3.org/2000/svg">
<g clip-path="url(#clip0_108_563)">
<path d="M15.6386 18.5C11.6536 18.5 7.66807 18.5 3.68304 18.5C3.33127 18.2994 3.26364 18.1073 3.41393 17.7321C3.8587 16.6195 4.30393 15.5073 4.74916 14.3947C4.87127 14.0899 5.00418 13.9997 5.33576 13.9997C6.11445 13.9993 6.89361 13.9997 7.67229 13.9993C7.73382 13.9993 7.79487 13.9941 7.86297 13.9913C7.86297 13.1445 7.86579 12.3193 7.85687 11.4941C7.8564 11.4406 7.77515 11.3617 7.71456 11.3391C6.5315 10.8934 5.63211 10.1129 5.02626 9.01247C4.86376 8.71705 4.70971 8.51792 4.34761 8.57804C4.28138 8.58884 4.20906 8.56113 4.13908 8.55267C2.51407 8.35213 1.19481 7.1996 0.783394 5.61592C0.730793 5.4135 0.699796 5.20544 0.658936 5.0002C0.658936 4.17972 0.658936 3.3597 0.658936 2.53921C0.668329 2.52512 0.682418 2.51244 0.686645 2.49694C0.889536 1.77649 1.37751 1.40358 2.12285 1.40265C2.76722 1.40171 3.41205 1.40265 4.05642 1.40265C4.11841 1.40265 4.17994 1.40265 4.2579 1.40265C4.2579 1.24155 4.25321 1.10723 4.25884 0.97385C4.27199 0.655424 4.42792 0.501378 4.7454 0.501378C8.02078 0.499969 11.2957 0.500438 14.5711 0.501378C14.8979 0.501378 15.0515 0.655894 15.0628 0.986531C15.0675 1.11897 15.0637 1.25189 15.0637 1.40312C15.1511 1.40312 15.2145 1.40312 15.2774 1.40312C15.9396 1.40312 16.6014 1.39889 17.2636 1.40452C18.069 1.4111 18.6594 2.00568 18.6618 2.80691C18.6636 3.4339 18.6669 4.06042 18.6603 4.68741C18.6528 5.41162 18.4664 6.09027 18.077 6.70176C17.2922 7.93461 16.1421 8.52778 14.6997 8.5926C14.5983 8.59729 14.5203 8.59917 14.463 8.71799C13.8553 9.9715 12.8902 10.8394 11.5934 11.3401C11.4859 11.3814 11.4549 11.4331 11.4558 11.543C11.4601 12.3104 11.4582 13.0778 11.4587 13.8452C11.4587 13.895 11.4657 13.9453 11.4699 14.0011C12.3134 14.0011 13.1395 14.0011 13.9652 14.0011C14.3226 14.0011 14.4485 14.0857 14.5781 14.4097C15.0186 15.512 15.4592 16.6143 15.8997 17.7166C16.0575 18.1087 15.9951 18.2957 15.6386 18.5ZM2.46758 3.20988C2.46758 3.76266 2.44738 4.29525 2.47321 4.82596C2.4981 5.3407 2.7226 5.78406 3.08001 6.15509C3.39937 6.48619 3.78073 6.70552 4.24428 6.79053C4.24428 5.58727 4.24428 4.40186 4.24428 3.20941C3.64782 3.20988 3.06404 3.20988 2.46758 3.20988ZM15.0759 6.78442C15.8513 6.68626 16.6192 5.97568 16.7888 5.15801C16.8592 4.81845 16.8494 4.46104 16.8625 4.11115C16.8733 3.81479 16.8649 3.5175 16.8649 3.21457C16.2557 3.21457 15.6677 3.21457 15.0759 3.21457C15.0759 4.41126 15.0759 5.59714 15.0759 6.78442Z" fill="#C19718"/>
</g>
<defs>
<clipPath id="clip0_108_563">
<rect width="18.0061" height="18" fill="white" transform="translate(0.658936 0.5)"/>
</clipPath>
</defs>
</svg>
