<svg width="172" height="51" viewBox="0 0 172 51" fill="none" xmlns="http://www.w3.org/2000/svg">
<g clip-path="url(#clip0_45_717)">
<path d="M32.9436 27.5104C28.1261 28.0682 23.2363 28.6371 18.3187 29.1176V30.2277C23.2864 29.7417 28.2207 29.1728 33.0716 28.604C43.6634 27.3723 54.6168 26.0965 65.4589 25.7872H106.519C117.378 26.0965 128.331 27.3723 138.923 28.604C143.779 29.1673 148.714 29.7417 153.676 30.2277V29.1176C148.758 28.6371 143.863 28.0682 139.051 27.5104C132.019 26.693 124.832 25.8645 117.611 25.3012V21.3743C118.012 21.4019 118.412 21.424 118.813 21.4516L119.408 21.4902V19.3639V18.2593V16.1273L118.891 16.0942C96.5112 14.5533 73.82 14.5533 51.4404 16.0942L50.923 16.1273V18.2537V19.3583V21.4847L51.5182 21.4461C51.852 21.424 52.1858 21.4019 52.5251 21.3798V25.4448C45.9331 26.0026 39.3744 26.7593 32.9436 27.5104ZM54.461 25.2956C53.9993 25.3288 53.5431 25.3619 53.0814 25.4006V21.3522C53.5431 21.3246 53.9993 21.2914 54.461 21.2638V25.2956ZM59.4788 24.9532C57.9879 25.0416 56.5026 25.1355 55.0173 25.2515V21.2251C56.5026 21.1312 57.9935 21.0484 59.4788 20.9711V24.9532ZM61.4147 24.8427C60.953 24.8648 60.4968 24.898 60.0351 24.9201V20.9379C60.4968 20.9158 60.953 20.8938 61.4147 20.8717V24.8427ZM66.438 24.6881H65.4478C64.2907 24.7212 63.1336 24.7709 61.9765 24.8262V20.8496C63.4618 20.7778 64.9527 20.717 66.438 20.6618V24.6881ZM68.3739 24.6881H66.9943V20.6397C67.456 20.6231 67.9122 20.601 68.3739 20.5845V24.6881ZM73.3916 24.6881H68.9302V20.5679C70.4155 20.5182 71.9063 20.4795 73.3916 20.4409V24.6881ZM75.3275 24.6881H73.9479V20.4298C74.4097 20.4188 74.8658 20.4077 75.3275 20.4022V24.6881ZM80.3453 24.6881H75.8838V20.3912C77.3691 20.3635 78.86 20.3414 80.3453 20.3249V24.6881ZM82.2812 24.6881H80.9016V20.3194C81.3633 20.3138 81.8195 20.3138 82.2812 20.3138V24.6881ZM87.299 24.6881H82.8375V20.3083C84.3228 20.3028 85.8137 20.3028 87.299 20.3083V24.6881ZM89.2349 24.6881H87.8552V20.3083C88.317 20.3083 88.7731 20.3083 89.2349 20.3138V24.6881ZM94.2582 24.6881H89.7967V20.3194C91.2876 20.3359 92.7729 20.3525 94.2582 20.3801V24.6881ZM96.1941 24.6881H94.8145V20.3967C95.2762 20.4077 95.7323 20.4132 96.1941 20.4243V24.6881ZM101.212 24.6881H96.7504V20.4353C98.2412 20.4685 99.7265 20.5127 101.212 20.5624V24.6881ZM103.148 24.6881H101.768V20.5789C102.23 20.5955 102.686 20.6121 103.148 20.6286V24.6881ZM108.165 24.7489C107.62 24.7268 107.081 24.6991 106.536 24.6881H103.698V20.6507C105.189 20.706 106.675 20.7722 108.16 20.8385V24.7489H108.165ZM110.101 24.8262C109.64 24.8041 109.184 24.793 108.722 24.7709V20.8661C109.184 20.8882 109.64 20.9103 110.101 20.9324V24.8262ZM115.119 25.1134C113.634 25.014 112.143 24.9201 110.658 24.8483V20.96C112.149 21.0374 113.634 21.1202 115.119 21.2141V25.1134ZM117.055 25.257C116.593 25.2238 116.137 25.1852 115.675 25.152V21.2417C116.137 21.2693 116.593 21.3025 117.055 21.3301V25.257ZM52.0356 20.3083V19.2921C52.6809 19.2479 53.3262 19.2092 53.977 19.165C54.6279 19.1209 55.2843 19.0822 55.9352 19.038C56.6695 18.9938 57.3982 18.9552 58.1325 18.9165C58.789 18.8778 59.4454 18.8392 60.1018 18.806C60.8361 18.7674 61.5704 18.7342 62.3047 18.7011C62.9612 18.668 63.6176 18.6403 64.2685 18.6072C65.0083 18.5741 65.7482 18.552 66.4881 18.5188C67.1389 18.4967 67.7898 18.4691 68.4406 18.447C69.1972 18.4194 69.9482 18.4029 70.7048 18.3808C71.3389 18.3642 71.9787 18.3421 72.6128 18.3255C73.3805 18.3034 74.1482 18.2924 74.9159 18.2758C75.5445 18.2648 76.1675 18.2482 76.7962 18.2372C77.5861 18.2261 78.376 18.2151 79.166 18.2095C79.7723 18.204 80.3731 18.193 80.9795 18.1875C82.0142 18.1764 83.0489 18.1764 84.0836 18.1764C84.7956 18.1764 85.5077 18.1764 86.2253 18.1764C87.26 18.1764 88.2947 18.1819 89.3294 18.1875C89.9302 18.193 90.5366 18.204 91.1374 18.2095C91.9273 18.2206 92.7172 18.2261 93.5072 18.2427C94.1358 18.2537 94.7588 18.2703 95.3875 18.2813C96.1551 18.2979 96.9228 18.309 97.6961 18.3311C98.3302 18.3476 98.97 18.3697 99.6041 18.3863C100.361 18.4084 101.117 18.4305 101.874 18.4526C102.525 18.4747 103.176 18.5023 103.826 18.5244C104.566 18.552 105.312 18.5796 106.052 18.6127C106.708 18.6403 107.359 18.6735 108.015 18.7011C108.75 18.7342 109.484 18.7674 110.224 18.806C110.88 18.8392 111.537 18.8778 112.193 18.9165C112.927 18.9552 113.662 18.9938 114.39 19.038C115.041 19.0767 115.698 19.1208 116.349 19.1595C116.994 19.1982 117.645 19.2424 118.29 19.2865V20.3028C96.3109 18.8226 74.0258 18.8226 52.0356 20.3083Z" fill="#BF9517"/>
<path d="M167.383 38.4185L167.622 35.8171C168.89 35.8778 170.159 35.9276 171.433 35.9662L172.006 35.9828V30.3382L171.466 30.3216C167.099 30.2001 162.715 29.9129 158.343 29.5429V30.653C162.521 31.0065 166.71 31.2827 170.893 31.4097V34.8395C166.715 34.707 162.521 34.4308 158.343 34.0773V35.1875C158.799 35.2261 159.25 35.2648 159.706 35.2979L159.517 38.4129H158.343V39.5175H170.893V41.8041H158.343V42.9032H159.244L159.055 46.0569L158.349 45.8967L157.175 45.6316V10.7037V0H154.872H149.465L154.872 10.7037V45.1124L153.698 44.8473L152.752 44.6319L152.858 42.9087H153.698V41.8096H140.325L130.261 39.5231H153.698V38.4185H153.131L153.186 37.474H153.698V36.9217H153.22L153.292 35.7287H153.698V35.1764H153.325L153.353 34.729C153.47 34.7401 153.581 34.7511 153.698 34.7622V33.652C148.78 33.1715 143.885 32.6027 139.073 32.0448C128.459 30.8077 117.478 29.5318 106.558 29.2225H65.4645C54.5611 29.5318 43.5799 30.8077 32.9659 32.0448C28.1484 32.6027 23.2586 33.1715 18.341 33.652V34.7622C18.7971 34.718 19.2533 34.6738 19.7094 34.6241V38.4185H18.341V39.5231H41.772L31.692 41.8096H18.3187V42.9142H19.6872V44.538L18.3187 44.8473V45.9795L46.7452 39.5286H125.255L159.762 47.3603V49.6137L155.895 48.7355L149.609 47.3106L125.444 41.8262L46.6173 41.8096L22.3908 47.3106L18.3187 48.2329L17.1449 48.4981V10.7037L22.5521 0H17.1449H14.8419V10.7037V49.0227L13.6681 49.2878L12.2384 49.6137V47.3603L13.6625 47.0344V45.9022L13.2898 45.9851V42.9142H13.6625V41.8096H1.11258V39.5231H13.6625V38.4185H13.2898V37.474H13.6625V36.9217H13.2898V35.7287H13.6625V34.0828C9.48478 34.4363 5.2959 34.7125 1.11258 34.845V31.4152C5.2959 31.2827 9.48478 31.012 13.6625 30.6585V29.5484C9.29564 29.9185 4.91206 30.2057 0.545166 30.3272L0 30.3382V35.9773L0.572981 35.9607C1.22384 35.9441 1.8747 35.911 2.52557 35.8834L2.75365 38.4129H0V42.9087H3.1653L3.79948 49.8567C3.6604 49.9561 3.56027 50.1108 3.56027 50.2986C3.56027 50.6023 3.8106 50.8509 4.11656 50.8509H6.76451H6.75339H11.1258V50.989L11.7433 50.8509H13.6625H18.3187H22.3908H149.604H153.676H158.332H160.251L160.869 50.989V50.8509H165.241H165.23H166.014C166.32 50.8509 166.571 50.6023 166.571 50.2986C166.571 50.1163 166.476 49.9561 166.331 49.8567L166.966 42.9032H171.989V38.4074H167.383V38.4185ZM163.656 36.9217H160.179V37.474H163.639L163.611 38.4185H160.068L160.229 35.7287H163.695L163.656 36.9217ZM166.821 38.4185H164.167L164.251 35.6238C165.185 35.6845 166.126 35.7398 167.06 35.7895L166.821 38.4185ZM20.2435 44.411V42.9142H24.4824L24.4991 43.45L20.2435 44.411ZM26.6408 42.9584L25.0498 43.3174L25.0387 42.9087H26.6408V42.9584ZM150.455 34.4363C151.228 34.5192 152.007 34.5965 152.78 34.6738L152.552 38.4185H150.455V34.4363ZM145.932 33.9448C147.251 34.0939 148.575 34.2375 149.898 34.3756V35.1764H145.893L145.932 33.9448ZM145.877 35.7287H149.898V36.9217H145.843L145.877 35.7287ZM145.821 37.474H149.893V38.4185H145.788L145.821 37.474ZM143.496 33.6686C144.119 33.7404 144.747 33.8122 145.37 33.8785L145.231 38.4185H143.49V33.6686H143.496ZM138.917 33.1384H138.923C139.757 33.2378 140.597 33.3317 141.437 33.4311H138.912L138.917 33.1384ZM138.895 33.9834H142.939V35.1764H138.867L138.895 33.9834ZM138.851 35.7287H142.939V36.9217H138.817L138.851 35.7287ZM138.806 37.474H142.939V38.4185H138.784L138.806 37.474ZM136.542 32.8622C137.148 32.934 137.76 33.0003 138.361 33.0721L138.222 38.4129H136.536V32.8622H136.542ZM131.986 32.3431C133.327 32.4922 134.656 32.6469 135.991 32.796V33.4256H131.958L131.986 32.3431ZM131.941 33.9834H135.986V35.1764H131.908L131.941 33.9834ZM131.897 35.7287H135.986V36.9217H131.864L131.897 35.7287ZM131.852 37.474H135.986V38.4185H131.825L131.852 37.474ZM124.571 31.5588C124.999 31.603 125.422 31.6417 125.85 31.6858H124.571V31.5588ZM34.1508 33.0169C35.4803 32.8622 36.8154 32.7076 38.1561 32.553L38.1783 33.4311H34.1508V33.0169ZM34.1508 33.9834H38.195L38.2228 35.1764H34.1508V33.9834ZM34.1508 35.7287H38.2395L38.2729 36.9217H34.1508V35.7287ZM31.2247 33.3538V33.4311H30.5627C30.7852 33.4035 31.0077 33.3814 31.2247 33.3538ZM27.1971 33.9834H31.2414L31.2692 35.1764H27.1916V33.9834H27.1971ZM27.1971 35.7287H31.2859L31.3193 36.9217H27.1971V35.7287ZM20.2435 34.5689C21.573 34.4308 22.897 34.2927 24.2154 34.1491L24.2488 35.1764H20.2435V34.5689ZM20.2435 35.7287H24.2655L24.2988 36.9217H20.2435V35.7287ZM20.2435 38.4185V37.474H24.3155L24.3433 38.4185H20.2435ZM26.6408 38.4185H24.8996L24.7661 34.0884C25.3892 34.0221 26.0122 33.9503 26.6353 33.8785V38.4185H26.6408ZM27.1971 38.4185V37.474H31.3304L31.3526 38.4185H27.1971ZM33.5945 38.4185H31.9089L31.7754 33.293C32.2038 33.2433 32.6377 33.1936 33.0716 33.1439C33.244 33.1218 33.422 33.1053 33.5945 33.0832V38.4185ZM34.1508 38.4185V37.474H38.284L38.3063 38.4185H34.1508ZM40.5537 38.4185H38.8681L38.7179 32.4922C39.3299 32.4204 39.9418 32.3541 40.5537 32.2823V38.4185ZM45.5715 38.4185H41.11V37.474H45.5715V38.4185ZM45.5715 36.9217H41.11V35.7287H45.5715V36.9217ZM45.5715 35.1764H41.11V33.9834H45.5715V35.1764ZM45.5715 33.4311H41.11V32.2381H45.5715V33.4311ZM47.5074 38.4185H46.684H46.1278V31.6914C46.5895 31.6472 47.0456 31.5975 47.5074 31.5533V38.4185ZM52.5251 38.4185H51.6128H48.0636V37.474H52.5251V38.4185ZM52.5251 36.9217H48.0636V35.7287H52.5251V36.9217ZM52.5251 35.1764H48.0636V33.9834H52.5251V35.1764ZM52.5251 33.4311H48.0636V32.2381H52.5251V33.4311ZM52.5251 31.6858H48.0636V31.4981C49.549 31.3545 51.0342 31.2164 52.5251 31.0893V31.6858ZM54.461 38.4185H53.0814V31.0396C53.5431 31.001 53.9993 30.9678 54.461 30.9347V38.4185ZM59.4788 38.4185H55.0173V37.474H59.4788V38.4185ZM59.4788 36.9217H55.0173V35.7287H59.4788V36.9217ZM59.4788 35.1764H55.0173V33.9834H59.4788V35.1764ZM59.4788 33.4311H55.0173V32.2381H59.4788V33.4311ZM59.4788 31.6858H55.0173V30.8905C56.5026 30.7801 57.9935 30.6806 59.4788 30.5923V31.6858ZM61.4147 38.4185H60.0351V30.5647C60.4968 30.537 60.9529 30.5094 61.4147 30.4873V38.4185ZM66.438 38.4185H61.9765V37.474H66.438V38.4185ZM66.438 36.9217H61.9765V35.7287H66.438V36.9217ZM66.438 35.1764H61.9765V33.9834H66.438V35.1764ZM66.438 33.4311H61.9765V32.2381H66.438V33.4311ZM66.438 31.6858H61.9765V30.4597C63.1392 30.4045 64.3018 30.3548 65.4645 30.3216H66.438V31.6858ZM68.3739 38.4185H66.9943V30.3272H68.3739V38.4185ZM73.3916 38.4185H68.9302V37.474H73.3916V38.4185ZM73.3916 36.9217H68.9302V35.7287H73.3916V36.9217ZM73.3916 35.1764H68.9302V33.9834H73.3916V35.1764ZM73.3916 33.4311H68.9302V32.2381H73.3916V33.4311ZM73.3916 31.6858H68.9302V30.3216H73.3916V31.6858ZM75.3275 38.4185H73.9479V30.3272H75.3275V38.4185ZM80.3453 38.4185H75.8838V30.3272H80.3453V38.4185ZM82.2812 38.4185H80.9016V30.3272H82.2812V38.4185ZM87.2989 38.4185H86.637V33.4532H83.5718V38.4185H82.8375V30.3272H87.2989V38.4185ZM89.2348 38.4185H87.8552V30.3272H89.2348V38.4185ZM94.2582 38.4185H89.7967V30.3272H94.2582V38.4185ZM96.1941 38.4185H94.8145V30.3272H96.1941V38.4185ZM101.212 38.4185H96.7503V37.474H101.212V38.4185ZM101.212 36.9217H96.7503V35.7287H101.212V36.9217ZM101.212 35.1764H96.7503V33.9834H101.212V35.1764ZM101.212 33.4311H96.7503V32.2381H101.212V33.4311ZM101.212 31.6858H96.7503V30.3216H101.212V31.6858ZM103.148 38.4185H101.768V30.3272H103.148V38.4185ZM108.165 38.4185H103.704V37.474H108.165V38.4185ZM108.165 36.9217H103.704V35.7287H108.165V36.9217ZM108.165 35.1764H103.704V33.9834H108.165V35.1764ZM108.165 33.4311H103.704V32.2381H108.165V33.4311ZM108.165 31.6858H103.704V30.3216H106.524C107.07 30.3382 107.62 30.3658 108.171 30.3879V31.6858H108.165ZM110.101 38.4185H108.722V30.41C109.183 30.4266 109.64 30.4431 110.101 30.4652V38.4185ZM115.119 38.4185H110.658V37.474H115.119V38.4185ZM115.119 36.9217H110.658V35.7287H115.119V36.9217ZM115.119 35.1764H110.658V33.9834H115.119V35.1764ZM115.119 33.4311H110.658V32.2381H115.119V33.4311ZM115.119 31.6858H110.658V30.4873C112.143 30.5591 113.634 30.653 115.119 30.7524V31.6858ZM117.055 38.4185H115.675V30.7966C116.137 30.8298 116.593 30.8629 117.055 30.9016V38.4185ZM122.078 38.4185H120.387H117.611V37.474H122.073V38.4185H122.078ZM122.078 36.9217H117.617V35.7287H122.078V36.9217ZM122.078 35.1764H117.617V33.9834H122.078V35.1764ZM122.078 33.4311H117.617V32.2381H122.078V33.4311ZM122.078 31.6858H117.617V30.9402C119.108 31.0562 120.593 31.1832 122.078 31.3213V31.6858ZM124.014 38.4185H122.635V31.371C123.096 31.4152 123.552 31.4594 124.014 31.5036V38.4185ZM129.032 38.4185H125.383H124.571V37.474H129.032V38.4185ZM129.032 36.9217H124.571V35.7287H129.032V36.9217ZM129.032 35.1764H124.571V33.9834H129.032V35.1764ZM129.032 33.4311H124.571V32.2381H129.032V33.4311ZM129.588 32.078C130.2 32.1443 130.818 32.2105 131.43 32.2768L131.274 38.4129H129.588V32.078ZM149.898 43.9857L145.654 43.0247L145.66 42.9032H149.898V43.9857ZM152.185 44.5049L150.455 44.1127V42.9032H152.285L152.185 44.5049ZM12.7335 35.2703V38.4185H10.6363L10.4583 35.4415C11.2093 35.3808 11.9714 35.3311 12.7335 35.2703ZM10.0745 38.4185H6.53087L6.50306 37.474H10.0188L10.0745 38.4185ZM9.91313 35.7287L9.98545 36.9217H6.48637L6.45299 35.7287H9.91313ZM5.89113 35.7342L5.97458 38.4185H3.3155L3.08186 35.8668C4.02199 35.8281 4.95656 35.784 5.89113 35.7342ZM4.35021 49.7518L3.72716 42.9142H6.10809L6.31392 49.7518H4.35021ZM6.87021 49.7518L6.66438 42.9142H10.347L10.7643 49.7518H6.87021ZM11.1258 46.4766V46.5705L10.9033 42.9142H12.728V46.1121L11.1258 46.4766ZM21.2782 49.7518H16.6109L21.2782 48.6914V49.7518ZM22.3908 49.7518V48.4373L24.6326 47.9292L24.6882 49.7463H22.3908V49.7518ZM26.6408 49.7518H25.2445L25.1833 47.8077L26.6408 47.4763V49.7518ZM27.1971 49.7518V47.3493L31.5585 46.3606L31.6475 49.7518H27.1971ZM33.5945 49.7518H32.2038L32.1147 46.2336L33.6001 45.8967V49.7518H33.5945ZM34.1508 49.7518V45.7752L38.4732 44.7921L38.6011 49.7518H34.1508ZM40.5537 49.7518H39.163L39.035 44.665L40.5593 44.3171V49.7518H40.5537ZM45.5715 49.7518H41.11V44.1901L45.5715 43.1793V49.7518ZM47.5074 49.7518H46.1278V43.0523L46.7452 42.9142H47.5074V49.7518ZM52.5251 49.7518H48.0636V42.9142H52.5251V49.7518ZM54.461 49.7518H53.0814V42.9142H54.461V49.7518ZM59.4788 49.7518H55.0173V42.9142H59.4788V49.7518ZM61.4147 49.7518H60.0351V42.9142H61.4147V49.7518ZM66.438 49.7518H61.9765V42.9142H66.438V49.7518ZM68.3739 48.8018V49.7518H66.9943V42.9142H68.3739V48.8018ZM73.3916 49.7518H68.9302V49.3541H73.3916V49.7518ZM73.3916 43.7814H68.9302V42.9142H73.3916V43.7814ZM75.3275 48.8018V49.7518H73.9479V48.8018V42.9142H75.3275V48.8018ZM80.3453 49.7518H75.8838V49.3541H80.3453V49.7518ZM80.3453 43.7814H75.8838V42.9142H80.3453V43.7814ZM82.2812 49.7518H80.9016V48.8018V42.9142H82.2812V49.7518ZM87.2989 43.7814H82.8375V42.9142H87.2989V43.7814ZM89.2348 48.8018V49.7518H87.8552V42.9142H89.2348V48.8018ZM94.2582 49.7518H89.7967V49.3541H94.2582V49.7518ZM94.2582 43.7814H89.7967V42.9142H94.2582V43.7814ZM96.1941 48.8018V49.7518H94.8145V48.8018V42.9142H96.1941V48.8018ZM101.212 49.7518H96.7503V49.3541H101.212V49.7518ZM101.212 43.7814H96.7503V42.9142H101.212V43.7814ZM103.148 49.7518H101.768V48.8018V42.9142H103.148V49.7518ZM108.165 49.7518H103.704V42.9142H108.165V49.7518ZM110.101 49.7518H108.722V42.9142H110.101V49.7518ZM115.119 49.7518H110.658V42.9142H115.119V49.7518ZM117.055 49.7518H115.675V42.9142H117.055V49.7518ZM122.078 49.7518H117.617V42.9142H122.078V49.7518ZM124.014 49.7518H122.635V42.9142H124.014V49.7518ZM129.032 49.7518H124.571V42.9142H125.255L129.032 43.7703V49.7518ZM130.979 49.7518H129.588V43.8973L131.124 44.2453L130.979 49.7518ZM135.986 49.7518H131.535L131.674 44.3723L135.986 45.3499V49.7518ZM137.938 49.7518H136.548V45.4769L138.044 45.8138L137.938 49.7518ZM142.939 49.7518H138.489L138.589 45.9409L142.939 46.9295V49.7518ZM144.892 49.7518H143.496V47.0565L144.964 47.3879L144.892 49.7518ZM149.604 49.7518H145.448L145.515 47.5149L149.604 48.4428V49.7518ZM150.716 49.7518V48.6914L155.384 49.7518H150.716ZM163.266 49.7518H160.874V46.4766L159.595 46.1839L159.795 42.9032H163.478L163.266 49.7518ZM165.792 49.7518H163.822L164.028 42.9087H166.409L165.792 49.7518Z" fill="#BF9517"/>
</g>
<defs>
<clipPath id="clip0_45_717">
<rect width="172" height="51" fill="white"/>
</clipPath>
</defs>
</svg>
