<svg width="191" height="54" viewBox="0 0 191 54" fill="none" xmlns="http://www.w3.org/2000/svg">
<g clip-path="url(#clip0_44_346)">
<path d="M8.38774 33.4904H4.18269H3.06432H0V54H1.69992H4.17709H8.38774H10.8202V52.8863H9.5061V43.7758V38.9533V35.7457V34.6097H10.8202V33.4959H9.5061H8.38774V33.4904ZM3.06432 35.7457V38.9533V43.7758V52.8863H1.69992H1.11837V34.6041H3.06432V35.7457ZM8.38774 52.8863H4.18269V47.9635H8.38774V52.8863ZM8.38774 46.4878H4.18269V43.7758H8.38774V46.4878ZM8.38774 42.6621H4.18269V40.067H8.38774V42.6621ZM8.38774 38.9533H4.18269V37.1657H8.38774V38.9533ZM8.38774 36.6088H4.18269V35.7457H8.38774V36.6088Z" fill="#BF9517"/>
<path d="M187.936 33.4904H186.817H182.612H181.494H180.18V34.6041H181.494V35.7401V38.9477V43.7702V52.8807H180.18V53.9944H182.612H186.817H187.667H191V33.4904H187.936ZM186.817 52.8863H182.612V47.9635H186.817V52.8863ZM186.817 46.4878H182.612V43.7758H186.817V46.4878ZM186.817 42.6621H182.612V40.067H186.817V42.6621ZM186.817 38.9533H182.612V37.1657H186.817V38.9533ZM186.817 36.6088H182.612V35.7457H186.817V36.6088ZM189.882 52.8863H187.936V43.7758V38.9533V35.7457V34.6097H189.882V52.8863Z" fill="#BF9517"/>
<path d="M35.3012 42.662H27.8585L27.2098 43.7758H35.9555L35.3012 42.662Z" fill="#BF9517"/>
<path d="M33.1371 38.9533H30.0281L29.3738 40.067H33.7858L33.1371 38.9533Z" fill="#BF9517"/>
<path d="M47.2062 38.9533H44.0971L43.4429 40.067H47.8548L47.2062 38.9533Z" fill="#BF9517"/>
<path d="M49.3702 42.662H41.9275L41.2789 43.7758H50.0245L49.3702 42.662Z" fill="#BF9517"/>
<path d="M149.19 42.662H141.747L141.099 43.7758H149.844L149.19 42.662Z" fill="#BF9517"/>
<path d="M147.026 38.9533H143.917L143.268 40.067H147.675L147.026 38.9533Z" fill="#BF9517"/>
<path d="M161.095 38.9533H157.986L157.332 40.067H161.744L161.095 38.9533Z" fill="#BF9517"/>
<path d="M163.259 42.662H155.816L155.168 43.7758H163.913L163.259 42.662Z" fill="#BF9517"/>
<path d="M168.543 33.4904H165.479H164.361H154.474H153.356H151.41H150.292H140.405H139.287H137.341H136.222H131.184V29.2581H126.18V25.7832C127.661 25.8723 129.149 25.967 130.631 26.0728L131.184 26.1118L131.414 23.1882L131.374 23.1826V21.1333L130.849 21.1055C129.126 20.9886 127.404 20.8772 125.676 20.7769V16.5558H124.675V20.7213C120.951 20.5096 117.216 20.337 113.481 20.2034V16.0379H112.48V20.1699C108.75 20.0474 105.02 19.9639 101.285 19.9249V15.6927H100.284V19.9138C96.5541 19.8804 92.8187 19.8859 89.089 19.9361V15.6983H88.0881V19.9528C84.3527 20.0085 80.623 20.0976 76.8932 20.2368V16.0435H75.8923V20.2758C72.1569 20.4205 68.4216 20.5987 64.6974 20.8215V16.5614H63.6965V20.8827C62.5166 20.9551 61.3368 21.0331 60.1625 21.1111L59.6424 21.1445V23.1938L59.5977 23.1993L59.827 26.1229L60.3806 26.0839C61.32 26.0171 62.2594 25.9614 63.1988 25.9002V29.2693H59.827V33.5015H54.7887H53.6704H51.7244H50.606H40.7029H39.5846H37.6386H36.5202H26.6395H25.5211H22.4568V38.9644H15.7075V40.0782H22.4568V42.6732H15.7075V43.7869H22.4568V46.4989H15.7075V54.0111H22.4568H26.6395H36.5258H40.7085H50.5949H54.7775H62.6285H64.6359H65.7543H74.8242H75.9426H76.8317H77.9501H87.02H88.1384H90.1459H99.2158H101.223H102.342H111.412H112.53H113.419H114.537H123.607H124.726H126.733H136.217H140.4H150.286H154.469H164.355H168.538H175.287V46.4878H168.538V43.7758H175.287V42.6621H168.538V40.067H175.287V38.9533H168.538V33.4904H168.543ZM60.8447 24.9256L60.7888 24.224C83.8215 22.6592 107.173 22.6592 130.206 24.224L130.15 24.9256C118.653 24.146 107.072 23.7562 95.4972 23.7562C83.9221 23.7562 72.3471 24.1405 60.8447 24.9256ZM124.172 25.6719V29.2581H113.984V25.1985C117.384 25.3266 120.783 25.4825 124.172 25.6719ZM111.976 25.1317V29.2581H101.788V24.9034C105.182 24.9535 108.582 25.0259 111.976 25.1317ZM99.7806 24.8867V29.2637H89.5923V24.9034C92.9865 24.8644 96.3807 24.8588 99.7806 24.8867ZM87.5792 24.9312V29.2637H77.3909V25.1874C80.7851 25.0704 84.1794 24.9813 87.5792 24.9312ZM75.3834 25.2653V29.2637H65.1951V25.7665C68.5838 25.5661 71.9836 25.399 75.3834 25.2653ZM36.5258 52.8863H26.6395V47.9635H36.5258V52.8863ZM50.5949 52.8863H40.7029V47.9635H50.5893V52.8863H50.5949ZM62.6285 52.8863H54.772V47.9635H62.6285V52.8863ZM62.6285 46.4878H54.772V44.7559L53.6536 46.6715V52.8918H51.7076V46.6715L50.5893 44.7559V46.4933H40.7029V44.7615L39.5846 46.6771V52.8974H37.6386V46.6715L36.5202 44.7559V46.4878H26.6395V44.7559L25.5211 46.6715V52.8918H23.5752V43.7758V38.9533V34.6041H25.5211V35.7401V38.9477V43.7702V44.4496L26.6395 42.534V40.0615H28.0822L28.7308 38.9477H26.6339V37.1602H29.7765L30.1008 36.6033H26.6339V35.7401H30.6041L31.0906 34.9048C31.2919 34.5596 31.8567 34.5596 32.058 34.9048L32.5444 35.7401H36.5146V36.6033H33.0477L33.372 37.1602H36.5146V38.9477H34.4177L35.0664 40.0615H36.5091V42.534L37.6274 44.4496V43.7702V38.9477V35.7401V34.6041H39.5734V35.7401V38.9477V43.7702V44.4496L40.6917 42.534V40.0615H42.1344L42.7831 38.9477H40.6861V37.1602H43.8287L44.1531 36.6033H40.6861V35.7401H44.6563L45.1428 34.9048C45.3441 34.5596 45.9089 34.5596 46.1102 34.9048L46.5967 35.7401H50.5669V36.6033H47.1L47.4243 37.1602H50.5669V38.9477H48.47L49.1186 40.0615H50.5613V42.534L51.6797 44.4496V43.7702V38.9477V35.7401V34.6041H53.6256V35.7401V38.9477V43.7702V44.4496L54.744 42.534V40.0615H56.1867L56.8353 38.9477H54.7384V37.1602H57.881L58.2053 36.6033H54.7384V35.7401H58.7086L59.1951 34.9048C59.3125 34.7043 59.553 34.6264 59.7766 34.6598V36.4585V36.6088H59.497L59.1727 37.1657H59.7822V38.9533H58.1326L57.484 40.067H59.7878V42.6621H55.9686L55.32 43.7758H59.7878H60.9062H62.6285V46.4878ZM64.6359 45.1958V52.8863H63.7468V43.7758H64.6359V45.1958ZM74.8242 52.8863H65.7543V46.3096H74.8242V52.8863ZM74.8242 45.1958H65.7543V43.7758H74.8242V45.1958ZM76.8317 45.1958V52.8863H75.9426V45.1958V43.7758H76.8317V45.1958ZM87.02 52.8863H77.9501V46.3096H87.02V52.8863ZM87.02 45.1958H77.9501V43.7758H87.02V45.1958ZM89.0275 45.1958V49.2554V52.8863H88.1384V45.1958V43.7758H89.0275V45.1958ZM99.2214 52.8863H90.1514V49.2554H99.2214V52.8863ZM99.2214 48.1417H90.1514V46.3096H99.2214V48.1417ZM99.2214 45.1958H90.1514V43.7758H99.2214V45.1958ZM101.229 45.1958V52.8863H100.34V49.2554V45.1958V43.7758H101.229V45.1958ZM111.417 52.8863H102.347V46.3096H111.417V52.8863ZM111.417 45.1958H102.347V43.7758H111.417V45.1958ZM113.425 45.1958V52.8863H112.536V45.1958V43.7758H113.425V45.1958ZM123.613 52.8863H114.543V46.3096H123.613V52.8863ZM123.613 45.1958H114.543V43.7758H123.613V45.1958ZM125.62 52.8863H124.731V45.1958V43.7758H125.62V52.8863ZM123.613 42.6621H114.543H111.417H102.347H99.2214H90.1514H87.0256H77.9501H74.8242H65.7543H62.6285H60.9341V38.9533V35.7457V33.4959V30.3774H130.066V33.4959V35.7457V38.9533V42.6621H126.739H123.613ZM136.222 52.8863H126.739V47.9635H136.222V52.8863ZM150.292 52.8863H140.405V47.9635H150.292V52.8863ZM164.361 52.8863H154.474V47.9635H164.361V52.8863ZM167.425 38.9533V43.7758V52.8863H165.479V46.4599L164.361 44.5443V46.4878H154.474V44.9619L153.356 46.8776V52.8863H151.41V46.4599L150.292 44.5443V46.4878H140.405V44.9619L139.287 46.8776V52.8863H137.341V46.4599L136.222 44.5443V46.4878H126.739V43.7758H130.066H131.184H135.775L135.126 42.6621H131.184V40.067H133.611L132.962 38.9533H131.19V37.1657H131.917L131.592 36.6088H131.223L131.19 36.6701V34.6821C131.257 34.6542 131.33 34.6319 131.408 34.6319C131.609 34.6319 131.794 34.7378 131.889 34.9104L132.375 35.7457H136.222V36.6088H132.879L133.203 37.1657H136.222V38.9533H134.249L134.897 40.067H136.222V42.3335L137.341 44.2491V43.7814V38.9589V35.7513V34.6152H139.287V35.7513V38.9589V43.7814V44.6668L140.455 42.6676H140.405V40.0726H141.971L142.62 38.9589H140.4V37.1713H143.665L143.99 36.6144H140.4V35.7513H144.493L144.979 34.916C145.08 34.7433 145.264 34.6375 145.46 34.6375C145.656 34.6375 145.846 34.7433 145.941 34.916L146.428 35.7513H150.275V36.6144H146.931L147.255 37.1713H150.275V38.9589H148.301L148.949 40.0726H150.275V42.3391L151.393 44.2547V43.7869V38.9644V35.7568V34.6208H153.339V35.7568V38.9644V43.7869V44.6724L154.508 42.6732H154.457V40.0782H156.023L156.672 38.9644H154.452V37.1769H157.717L158.042 36.62H154.452V35.7568H158.545L159.032 34.9215C159.132 34.7489 159.317 34.6431 159.512 34.6431C159.708 34.6431 159.898 34.7489 159.993 34.9215L160.48 35.7568H164.327V36.62H160.983L161.307 37.1769H164.327V38.9644H162.353L163.002 40.0782H164.327V42.3446L165.445 44.2603V43.7925V38.97V35.7624V34.6264H167.391V38.9533H167.425Z" fill="#BF9517"/>
<path d="M105.574 48.8935H104.45V51.1321H105.574V48.8935Z" fill="#BF9517"/>
<path d="M109.393 48.8935H108.269V51.1321H109.393V48.8935Z" fill="#BF9517"/>
<path d="M117.73 48.8935H116.606V51.1321H117.73V48.8935Z" fill="#BF9517"/>
<path d="M121.55 48.8935H120.426V51.1321H121.55V48.8935Z" fill="#BF9517"/>
<path d="M68.9584 48.8935H67.8344V51.1321H68.9584V48.8935Z" fill="#BF9517"/>
<path d="M72.7776 48.8935H71.6537V51.1321H72.7776V48.8935Z" fill="#BF9517"/>
<path d="M81.1206 48.8935H79.9966V51.1321H81.1206V48.8935Z" fill="#BF9517"/>
<path d="M84.9398 48.8935H83.8159V51.1321H84.9398V48.8935Z" fill="#BF9517"/>
<path d="M31.7672 36.6089H31.3981L31.0738 37.1657H32.0915L31.7672 36.6089Z" fill="#BF9517"/>
<path d="M45.8362 36.6089H45.4671L45.1372 37.1657H46.1605L45.8362 36.6089Z" fill="#BF9517"/>
<path d="M145.656 36.6089H145.287L144.962 37.1657H145.98L145.656 36.6089Z" fill="#BF9517"/>
<path d="M159.725 36.6089H159.356L159.032 37.1657H160.049L159.725 36.6089Z" fill="#BF9517"/>
<path d="M55.9966 42.6621L57.5119 40.067L58.1606 38.9533L59.2063 37.1657L59.5306 36.6089L59.7151 36.2914L59.8102 36.4585V34.6598C59.5865 34.6264 59.3461 34.7043 59.2286 34.9048L58.7421 35.7401L58.2389 36.6033L57.9146 37.1602L56.8689 38.9477L56.2202 40.0615L54.7775 42.534L53.6592 44.4496L52.6862 46.1147L51.7132 44.4496L50.5949 42.534L49.1522 40.0615L48.5035 38.9477L47.4578 37.1602L47.1335 36.6033L46.6303 35.7401L46.1438 34.9048C45.9425 34.5596 45.3777 34.5596 45.1764 34.9048L44.6899 35.7401L44.1866 36.6033L43.8623 37.1602L42.8166 38.9477L42.168 40.0615L40.7253 42.534L39.6069 44.4496L38.6339 46.1147L37.661 44.4496L36.5426 42.534L35.0999 40.0615L34.4513 38.9477L33.4056 37.1602L33.0813 36.6033L32.578 35.7401L32.0915 34.9048C31.8902 34.5596 31.3254 34.5596 31.1241 34.9048L30.6376 35.7401L30.1344 36.6033L29.81 37.1602L28.7644 38.9477L28.1157 40.0615L26.673 42.534L25.5547 44.4496L24.1008 46.9389C23.9442 47.2061 24.0337 47.5458 24.3021 47.7018C24.3916 47.7519 24.4866 47.7797 24.5817 47.7797C24.7718 47.7797 24.9619 47.6795 25.0682 47.5013L25.5547 46.666L26.673 44.7503L27.2434 43.7702L27.892 42.6565L29.4074 40.0615L30.0561 38.9477L31.1018 37.1602L31.4261 36.6033L31.6106 36.2859L31.7951 36.6033L32.1195 37.1602L33.1651 38.9477L33.8138 40.0615L35.3292 42.6565L35.9778 43.7702L36.5482 44.7503L37.6666 46.666L38.153 47.5013C38.1586 47.5124 38.1698 47.518 38.1754 47.5236C38.1978 47.557 38.2201 47.5793 38.2481 47.6071C38.2761 47.6349 38.2984 47.6572 38.332 47.6795C38.3432 47.6851 38.3488 47.6962 38.3543 47.7018C38.4438 47.7519 38.5389 47.7797 38.6339 47.7797C38.6507 47.7797 38.6675 47.7742 38.6843 47.7742C38.701 47.7742 38.7122 47.7686 38.729 47.7686C38.7961 47.7575 38.8576 47.7407 38.9135 47.7073C38.9191 47.7073 38.9191 47.7018 38.9191 47.7018C38.9694 47.6684 39.0142 47.6294 39.0589 47.5793C39.0701 47.5681 39.0813 47.5514 39.0925 47.5403C39.0981 47.5291 39.1092 47.518 39.1204 47.5069L39.6069 46.6715L40.7253 44.7559L41.2957 43.7758L41.9443 42.6621L43.4597 40.067L44.1083 38.9533L45.154 37.1657L45.4783 36.6089L45.6629 36.2914L45.8474 36.6089L46.1717 37.1657L47.2174 38.9533L47.866 40.067L49.3814 42.6621L50.0301 43.7758L50.6004 44.7559L51.7188 46.6715L52.2109 47.5069C52.2165 47.518 52.2277 47.5236 52.2333 47.5291C52.2556 47.5625 52.278 47.5848 52.306 47.6127C52.3339 47.6405 52.3563 47.6684 52.3898 47.6851C52.401 47.6906 52.4066 47.7018 52.4122 47.7073C52.5017 47.7575 52.5967 47.7853 52.6918 47.7853C52.7086 47.7853 52.7253 47.7797 52.7421 47.7797C52.7589 47.7797 52.7701 47.7742 52.7869 47.7742C52.854 47.763 52.9155 47.7463 52.9714 47.7129C52.977 47.7129 52.977 47.7073 52.977 47.7073C53.0273 47.6739 53.072 47.6349 53.1168 47.5848C53.128 47.5737 53.1391 47.557 53.1503 47.5458C53.1559 47.5347 53.1671 47.5236 53.1783 47.5124L53.6648 46.6771L54.7831 44.7615L55.3535 43.7814L55.9966 42.6621Z" fill="#BF9517"/>
<path d="M166.575 47.7853C166.67 47.7853 166.765 47.763 166.855 47.7073C167.123 47.5514 167.212 47.2117 167.056 46.9444L165.479 44.2436L164.361 42.3279L163.035 40.0615L162.387 38.9477L161.341 37.1601L161.017 36.6033L160.513 35.7401L160.027 34.9048C159.926 34.7322 159.742 34.6264 159.546 34.6264C159.35 34.6264 159.16 34.7322 159.065 34.9048L158.579 35.7401L158.075 36.6033L157.751 37.1601L156.705 38.9477L156.057 40.0615L154.541 42.6565L153.373 44.6557L152.523 46.1091L151.427 44.238L150.308 42.3224L148.983 40.0559L148.334 38.9421L147.289 37.1546L146.964 36.5977L146.461 35.7345L145.975 34.8992C145.874 34.7266 145.689 34.6208 145.494 34.6208C145.298 34.6208 145.108 34.7266 145.013 34.8992L144.526 35.7345L144.023 36.5977L143.699 37.1546L142.653 38.9421L142.004 40.0559L140.489 42.6509L139.32 44.6501L138.47 46.1035L137.374 44.2324L136.256 42.3168L134.931 40.0503L134.282 38.9366L133.236 37.149L132.912 36.5921L132.409 35.729L131.922 34.8937C131.822 34.721 131.637 34.6152 131.441 34.6152C131.363 34.6152 131.29 34.6375 131.223 34.6654V36.6534L131.257 36.5921L131.441 36.2747L131.626 36.5921L131.95 37.149L132.996 38.9366L133.645 40.0503L135.16 42.6453L135.809 43.7591L136.256 44.5276L137.374 46.4432L137.984 47.4901C137.989 47.5013 138.001 47.5124 138.012 47.5236C138.023 47.5403 138.034 47.5514 138.045 47.5625C138.085 47.6127 138.129 47.6516 138.185 47.685C138.191 47.685 138.191 47.6906 138.191 47.6906C138.247 47.724 138.314 47.7407 138.375 47.7519C138.392 47.7519 138.409 47.7574 138.42 47.7574C138.437 47.7574 138.454 47.763 138.465 47.763C138.56 47.763 138.655 47.7407 138.744 47.685C138.756 47.6795 138.761 47.6683 138.767 47.6628C138.8 47.6405 138.823 47.6182 138.851 47.5904C138.879 47.5625 138.907 47.5403 138.923 47.5068C138.929 47.4957 138.94 47.4901 138.946 47.4846L139.315 46.8553L140.433 44.9397L141.127 43.7535L141.775 42.6398L143.291 40.0448L143.939 38.931L144.985 37.1434L145.309 36.5866L145.494 36.2691L145.678 36.5866L146.003 37.1434L147.048 38.931L147.697 40.0448L149.212 42.6398L149.861 43.7535L150.308 44.522L151.427 46.4377L152.036 47.4846C152.042 47.4957 152.053 47.5069 152.064 47.518C152.075 47.5347 152.086 47.5458 152.098 47.557C152.137 47.6071 152.182 47.6461 152.237 47.6795C152.243 47.6795 152.243 47.685 152.243 47.685C152.299 47.7185 152.366 47.7352 152.428 47.7463C152.444 47.7463 152.461 47.7519 152.472 47.7519C152.489 47.7519 152.506 47.7574 152.517 47.7574C152.612 47.7574 152.707 47.7352 152.797 47.6795C152.808 47.6739 152.813 47.6628 152.819 47.6572C152.853 47.6349 152.875 47.6127 152.903 47.5848C152.931 47.557 152.959 47.5347 152.976 47.5013C152.981 47.4901 152.992 47.4846 152.998 47.479L153.367 46.8497L154.485 44.9341L155.179 43.748L155.827 42.6342L157.343 40.0392L157.991 38.9254L159.037 37.1379L159.361 36.581L159.546 36.2636L159.731 36.581L160.055 37.1379L161.101 38.9254L161.749 40.0392L163.265 42.6342L163.913 43.748L164.361 44.5164L165.479 46.4321L166.088 47.479C166.195 47.6851 166.379 47.7853 166.575 47.7853Z" fill="#BF9517"/>
<path d="M11.9385 54H14.5891V14.9576L11.9385 14.5288V54Z" fill="#BF9517"/>
<path d="M18.7662 1.84882L20.1306 2.066L18.1287 14.4007L16.7643 14.178L16.5854 15.2806L19.0514 15.676L21.4111 1.14716L14.2927 0L18.9451 0.74621L18.7662 1.84882Z" fill="#BF9517"/>
<path d="M16.5853 15.2806L16.7643 14.178L18.7662 1.84882L18.9451 0.74621L14.2927 0L12.1175 13.4151L11.9385 14.5288L14.5891 14.9576L15.7074 15.1358L16.5853 15.2806Z" fill="#BF9517"/>
<path d="M176.411 54H179.061V14.5288L176.411 14.9576V54Z" fill="#BF9517"/>
<path d="M172.232 1.85416L170.869 2.07355L172.869 14.4043L174.233 14.1849L172.232 1.85416Z" fill="#1A1A1A"/>
<path d="M172.871 14.4007L170.869 2.066L172.234 1.84882L172.055 0.74621L176.702 0L169.589 1.14716L171.943 15.676L174.415 15.2806L174.236 14.178L172.871 14.4007Z" fill="#BF9517"/>
<path d="M176.702 0L172.055 0.74621L172.234 1.84882L174.236 14.178L174.415 15.2806L175.293 15.1358L176.411 14.9576L179.061 14.5288L178.882 13.4151L176.702 0Z" fill="#BF9517"/>
</g>
<defs>
<clipPath id="clip0_44_346">
<rect width="191" height="54" fill="white"/>
</clipPath>
</defs>
</svg>
