<svg width="173" height="58" viewBox="0 0 173 58" fill="none" xmlns="http://www.w3.org/2000/svg">
<g clip-path="url(#clip0_45_604)">
<path d="M173 39.8418V35.2056H163.717V36.3108H171.881V38.7367H166.403H163.717V48.0644H163.919V56.8948H163.717V58H168.339V46.9592H166.409V39.8418H173ZM164.4 39.8418H165.284V46.9592H165.038H164.406V39.8418H164.4ZM167.214 48.0644V56.928H165.032V48.0644H166.398H167.214Z" fill="#BF9517"/>
<path d="M149.354 56.8948V52.3138V48.0644H150.815H155.487H157.988V38.7367H155.487H150.815H147.693H143.021H139.898H135.226H132.104H127.561V36.3108H157.988V35.2056H127.561H126.442H112.386L111.609 22.9823H108.425V21.8384H94.6719V20.2028H89.5019V21.8384H75.7599V22.9823H72.5762L71.804 35.2056H69.8009H68.6819H46.5526H45.4335H15.0065V36.3108H45.4335V38.7367H15.0065V39.8419H18.3245V56.8948H15.0065V58H18.3245H18.884H28.1554H28.7149H37.9863H38.5458H45.7133H46.2728H53.4404H53.9999H61.1674H61.727H68.6819H78.0987H79.8612H93.1332H94.8957H104.313H115.9H117.019H133.162H157.988V56.8948H149.354ZM156.606 39.8419H157.49V46.9592H156.606V39.8419ZM150.815 39.8419H155.487V40.9139H150.815V39.8419ZM150.815 41.4665H155.487V42.1572H150.815V41.4665ZM150.815 42.7098H155.487V43.4005H150.815V42.7098ZM150.815 43.9531H155.487V46.9537H150.815V43.9531ZM28.1554 56.8948H18.884V39.8419H28.1554V56.8948ZM46.5526 39.8419H50.5029V46.9592H46.5526V39.8419ZM38.5458 39.8419H45.4335V46.9592H38.5458V39.8419ZM37.9863 56.8948H28.7149V39.8419H37.9863V46.9592H31.8427V51.0539H37.9863V56.8948ZM45.7133 56.8948H38.5458V51.0539H45.7133V56.8948ZM53.4404 56.8948H46.2728V51.0539H53.4404V56.8948ZM61.1674 56.8948H53.9999V51.0539H61.1674V56.8948ZM68.6819 56.8948H61.7326V51.0539H68.6819V56.8948ZM68.6819 49.9488H32.9617V48.0644H45.4335H50.5029H68.6763V49.9488H68.6819ZM51.6219 42.4335V39.8363H52.4948V42.4335H51.6219ZM53.6138 46.9592V39.8419H54.8728V46.9592H53.6138ZM55.9918 46.9592V39.8419H57.2508V46.9592H55.9918ZM58.3698 42.4335V39.8363H59.6287V42.4335H58.3698ZM60.7534 46.9592V39.8419H62.0123V46.9592H60.7534ZM63.1314 42.4335V39.8363H64.3903V42.4335H63.1314ZM68.6819 46.9592H65.5094V39.8419H68.6819V46.9592ZM68.6819 38.593H50.5029V38.7311H46.5526V36.3053H68.6819V38.593ZM127.561 39.8419H132.104V40.9139H127.561V39.8419ZM127.561 41.4665H132.104V42.1572H127.561V41.4665ZM127.561 42.7098H132.104V43.4005H127.561V42.7098ZM127.561 43.9531H132.104V46.9537H127.561V43.9531ZM108.431 24.0875H110.562L111.267 35.2056H108.431V24.0875ZM112.459 36.3108H126.447V39.8419V49.9488H122.497V48.0644V46.9592V38.593H104.318V36.3053H107.317H108.436H112.459V36.3108ZM121.372 39.6982V42.4335H120.5V39.6982H121.372ZM119.386 39.6982V46.9537H118.127V39.6982H119.386ZM117.008 39.6982V46.9537H115.749V39.6982H117.008ZM114.625 39.6982V42.4335H113.366V39.6982H114.625ZM112.247 39.6982V46.9537H110.988V39.6982H112.247ZM109.869 39.6982V42.4335H108.61V39.6982H109.869ZM107.491 39.6982V46.9537H104.318V39.6982H107.491ZM73.6281 24.0875H75.7599V35.2056H72.9231L73.6281 24.0875ZM78.0987 56.8948H69.8009V51.0539V48.0644V46.9592V38.593V36.3053H71.7313H75.7599H76.8789H78.0987V56.8948ZM82.2672 56.8948H81.344L82.2672 53.6732V56.8948ZM90.1733 56.8948H82.8323V51.7226L83.2687 50.1974H89.7369L90.1733 51.7226V56.8948ZM90.7328 56.8948V53.6732L91.656 56.8948H90.7328ZM93.7766 56.8948H92.8143L90.5761 49.0922H82.4183L80.1802 56.8948H79.2178V36.3108H93.7766V56.8948ZM103.199 38.593V46.9537V48.0589V49.9432V51.0484V56.8893H94.8957V36.3108H103.193V38.593H103.199ZM103.199 35.2056H94.8957H78.0987H76.8789V22.9823V22.9436H107.312V22.9823V35.2056H104.313H103.199ZM115.906 56.8948H104.318V51.0539H115.906V56.8948ZM115.906 49.9488H104.318V48.0644H121.378V49.9488H117.025H115.906ZM133.111 56.8948H117.025V51.0539H122.497H127.566V48.0644H132.11H133.111V56.8948ZM143.021 39.8419H147.693V40.9139H143.021V39.8419ZM143.021 41.4665H147.693V42.1572H143.021V41.4665ZM143.021 42.7098H147.693V43.4005H143.021V42.7098ZM143.021 43.9531H147.693V46.9537H143.021V43.9531ZM141.023 39.8419H141.907V46.9592H141.023V39.8419ZM135.226 39.8419H139.898V40.9139H135.226V39.8419ZM135.226 41.4665H139.898V42.1572H135.226V41.4665ZM135.226 42.7098H139.898V43.4005H135.226V42.7098ZM135.226 43.9531H139.898V46.9537H135.226V43.9531ZM134.107 46.9592H133.223V39.8419H134.107V46.9592ZM141.045 56.9225H138.125V53.1372H141.045V56.9225ZM148.235 52.3083H141.045V52.5846H138.125V52.3083H134.281V48.0589H135.226H139.898H143.021H147.693H148.235V52.3083ZM148.812 39.8419H149.696V46.9592H148.812V39.8419Z" fill="#BF9517"/>
<path d="M163.712 16.4396H164.434V0H156.897H155.778H153.081V16.4396H155.778H156.897H157.982H159.348V58H162.335V16.4396H163.712ZM162.347 1.10518H163.32V15.3344H162.347V1.10518ZM155.783 15.3344H154.206V1.10518H155.783V15.3344ZM159.359 15.3344H157.993H156.908V1.10518H157.993H159.359V15.3344Z" fill="#BF9517"/>
<path d="M104.777 24.5959H79.4136V25.701H104.777V24.5959Z" fill="#BF9517"/>
<path d="M104.777 28.1987H79.4136V29.3039H104.777V28.1987Z" fill="#BF9517"/>
<path d="M86.4972 45.8982C87.3533 45.8982 88.0527 45.2075 88.0527 44.362C88.0527 43.5166 87.3533 42.8258 86.4972 42.8258C85.6411 42.8258 84.9417 43.5166 84.9417 44.362C84.9417 45.2075 85.6411 45.8982 86.4972 45.8982ZM86.4972 43.3784C87.0455 43.3784 87.4932 43.8205 87.4932 44.362C87.4932 44.9036 87.0455 45.3457 86.4972 45.3457C85.9489 45.3457 85.5012 44.9036 85.5012 44.362C85.5012 43.8205 85.9489 43.3784 86.4972 43.3784Z" fill="#BF9517"/>
<path d="M86.4972 41.4665C87.163 41.4665 87.7058 40.9305 87.7058 40.2729C87.7058 39.6153 87.163 39.0793 86.4972 39.0793C85.8314 39.0793 85.2886 39.6153 85.2886 40.2729C85.2886 40.9305 85.8314 41.4665 86.4972 41.4665ZM86.4972 39.6319C86.8553 39.6319 87.1463 39.9192 87.1463 40.2729C87.1463 40.6265 86.8553 40.9139 86.4972 40.9139C86.1391 40.9139 85.8481 40.6265 85.8481 40.2729C85.8481 39.9192 86.1391 39.6319 86.4972 39.6319Z" fill="#BF9517"/>
<path d="M33.04 43.3287H30.7292V44.4505H33.04V43.3287Z" fill="#BF9517"/>
<path d="M36.3301 43.3287H34.0192V44.4505H36.3301V43.3287Z" fill="#BF9517"/>
<path d="M23.0581 43.3287H20.7473V44.4505H23.0581V43.3287Z" fill="#BF9517"/>
<path d="M26.3537 43.3287H24.0428V44.4505H26.3537V43.3287Z" fill="#BF9517"/>
<path d="M85.5796 32.3874C85.5404 32.3653 85.4957 32.3487 85.4453 32.3377C85.3949 32.3266 85.339 32.3266 85.2774 32.3266H84.3766C84.3151 32.3266 84.2591 32.3321 84.2087 32.3377C84.1584 32.3432 84.1136 32.3653 84.0745 32.3874C84.0353 32.4095 84.0073 32.4426 83.9849 32.4869C83.9626 32.5311 83.9514 32.5863 83.9514 32.6526C83.9514 32.7189 83.9626 32.7797 83.9849 32.8184C84.0073 32.8626 84.0353 32.8958 84.0745 32.9179C84.1136 32.94 84.1584 32.9566 84.2087 32.9676C84.2591 32.9787 84.3151 32.9787 84.3766 32.9787H85.2774C85.339 32.9787 85.3949 32.9731 85.4453 32.9676C85.4957 32.9621 85.5404 32.94 85.5796 32.9179C85.6187 32.8958 85.6467 32.8626 85.6691 32.8184C85.6915 32.7742 85.7027 32.7189 85.7027 32.6526C85.7027 32.5863 85.6915 32.5311 85.6691 32.4869C85.6467 32.4426 85.6132 32.4095 85.5796 32.3874ZM85.2942 32.7134C85.2774 32.7245 85.2607 32.73 85.2271 32.73H84.4158C84.3878 32.73 84.3654 32.7245 84.3542 32.7134C84.3374 32.7024 84.3318 32.6858 84.3318 32.6526C84.3318 32.625 84.3374 32.6029 84.3542 32.5918C84.3654 32.5808 84.3878 32.5753 84.4158 32.5753H85.2271C85.2551 32.5753 85.2774 32.5808 85.2942 32.5918C85.311 32.6029 85.3166 32.6195 85.3166 32.6526C85.3166 32.6858 85.311 32.7024 85.2942 32.7134Z" fill="#BF9517"/>
<path d="M83.9514 31.8072H84.634V31.9453H83.9514V32.1995H85.6971V31.9453H85.0145V31.8072H85.6971V31.553H84.3374V31.3872H85.6971V31.133H83.9514V31.8072Z" fill="#BF9517"/>
<path d="M87.163 31.3872H87.6163V31.133H86.7826V32.94H87.633V32.6858H87.163V31.3872Z" fill="#BF9517"/>
<path d="M88.1814 31.9121H88.0807V31.133H87.7505V32.9842H88.0807V32.2769H88.1814V32.9842H88.5115V31.133H88.1814V31.9121Z" fill="#BF9517"/>
<path d="M90.0166 32.3929H89.6361V32.9842H91.3819V32.73H90.0166V32.3929Z" fill="#BF9517"/>
<path d="M89.6361 32.2106H90.3188V32.5642H90.6992V32.2106H91.3819V31.9564H89.6361V32.2106Z" fill="#BF9517"/>
<path d="M89.6361 31.8072H91.3819V31.133H89.6361V31.8072ZM90.0166 31.3872H91.0014V31.553H90.0166V31.3872Z" fill="#BF9517"/>
<path d="M94.1124 31.2159C94.0788 31.1883 94.034 31.1662 93.9837 31.1551C93.9333 31.144 93.883 31.133 93.8214 31.133H92.8814C92.8255 31.133 92.7695 31.1385 92.7191 31.1551C92.6688 31.1662 92.6296 31.1883 92.5904 31.2159C92.5569 31.2435 92.5289 31.2767 92.5065 31.3209C92.4841 31.3651 92.4785 31.4148 92.4785 31.4701C92.4785 31.5309 92.4897 31.5806 92.5065 31.6248C92.5289 31.669 92.5569 31.7022 92.5904 31.7298C92.624 31.7574 92.6688 31.7795 92.7191 31.7906C92.7695 31.8016 92.8199 31.8127 92.8758 31.8127H93.8214C93.8774 31.8127 93.9333 31.8072 93.9781 31.7906C94.0284 31.7795 94.0676 31.7574 94.1068 31.7298C94.1403 31.7022 94.1683 31.669 94.1907 31.6248C94.2131 31.5806 94.2187 31.5309 94.2187 31.4701C94.2187 31.4148 94.2075 31.3651 94.1907 31.3209C94.1739 31.2767 94.1459 31.2435 94.1124 31.2159ZM93.8438 31.5309C93.8326 31.5474 93.8046 31.553 93.7711 31.553H92.9318C92.8982 31.553 92.8758 31.5474 92.859 31.5309C92.8478 31.5143 92.8366 31.4977 92.8366 31.4701C92.8366 31.4148 92.8646 31.3872 92.9262 31.3872H93.7655C93.827 31.3872 93.855 31.4148 93.855 31.4701C93.8662 31.4977 93.855 31.5143 93.8438 31.5309Z" fill="#BF9517"/>
<path d="M92.859 32.3929H92.4785V32.9842H94.2243V32.73H92.859V32.3929Z" fill="#BF9517"/>
<path d="M92.4785 32.2106H93.1612V32.5642H93.5416V32.2106H94.2243V31.9564H92.4785V32.2106Z" fill="#BF9517"/>
<path d="M96.9491 32.3874C96.91 32.3653 96.8652 32.3487 96.8149 32.3377C96.7645 32.3266 96.7085 32.3266 96.647 32.3266H95.7462C95.6846 32.3266 95.6287 32.3321 95.5783 32.3377C95.528 32.3432 95.4832 32.3653 95.444 32.3874C95.4049 32.4095 95.3769 32.4426 95.3545 32.4869C95.3321 32.5311 95.3209 32.5863 95.3209 32.6526C95.3209 32.7189 95.3321 32.7797 95.3545 32.8184C95.3769 32.8626 95.4049 32.8958 95.444 32.9179C95.4832 32.94 95.528 32.9566 95.5783 32.9676C95.6287 32.9787 95.6846 32.9787 95.7462 32.9787H96.647C96.7085 32.9787 96.7645 32.9731 96.8149 32.9676C96.8652 32.9621 96.91 32.94 96.9491 32.9179C96.9883 32.8958 97.0163 32.8626 97.0387 32.8184C97.061 32.7742 97.0722 32.7189 97.0722 32.6526C97.0722 32.5863 97.061 32.5311 97.0387 32.4869C97.0163 32.4426 96.9827 32.4095 96.9491 32.3874ZM96.6638 32.7134C96.647 32.7245 96.6302 32.73 96.5966 32.73H95.7853C95.7574 32.73 95.735 32.7245 95.7238 32.7134C95.707 32.7024 95.7014 32.6858 95.7014 32.6526C95.7014 32.625 95.707 32.6029 95.7238 32.5918C95.735 32.5808 95.7574 32.5753 95.7853 32.5753H96.5966C96.6246 32.5753 96.647 32.5808 96.6638 32.5918C96.6806 32.6029 96.6862 32.6195 96.6862 32.6526C96.6862 32.6858 96.6806 32.7024 96.6638 32.7134Z" fill="#BF9517"/>
<path d="M95.3209 31.8072H96.0035V31.9453H95.3209V32.1995H97.0666V31.9453H96.384V31.8072H97.0666V31.553H95.707V31.3872H97.0666V31.133H95.3209V31.8072Z" fill="#BF9517"/>
<path d="M99.7692 31.133H99.3887V32.1111H99.7692V31.7519H99.9538V31.4977H99.7692V31.133Z" fill="#BF9517"/>
<path d="M99.7748 32.3653C99.7356 32.3377 99.6908 32.3211 99.6405 32.31C99.5901 32.299 99.5342 32.2935 99.4726 32.2935H98.5774C98.5158 32.2935 98.4599 32.299 98.4095 32.31C98.3592 32.3211 98.3144 32.3377 98.2752 32.3653C98.2361 32.3929 98.2081 32.4261 98.1857 32.4758C98.1633 32.5255 98.1521 32.5808 98.1521 32.6471C98.1521 32.719 98.1633 32.7742 98.1857 32.8184C98.2081 32.8626 98.2361 32.8958 98.2752 32.9234C98.3144 32.951 98.3592 32.9621 98.4095 32.9731C98.4599 32.9842 98.5158 32.9842 98.5774 32.9842H99.4726C99.5342 32.9842 99.5901 32.9787 99.6405 32.9731C99.6908 32.9621 99.7356 32.9455 99.7748 32.9234C99.8139 32.9013 99.8419 32.8626 99.8643 32.8184C99.8867 32.7742 99.8979 32.7134 99.8979 32.6471C99.8979 32.5808 99.8867 32.52 99.8643 32.4758C99.8419 32.4316 99.8083 32.3929 99.7748 32.3653ZM99.4223 32.73H98.6165C98.5606 32.73 98.5326 32.7024 98.5326 32.6416C98.5326 32.614 98.5382 32.5919 98.555 32.5753C98.5718 32.5587 98.5886 32.5532 98.6165 32.5532H99.4223C99.4502 32.5532 99.4726 32.5587 99.4894 32.5753C99.5062 32.5919 99.5118 32.614 99.5118 32.6416C99.5118 32.7024 99.4838 32.73 99.4223 32.73Z" fill="#BF9517"/>
<path d="M98.4655 31.5585C98.4431 31.5972 98.4151 31.6303 98.376 31.6635C98.3424 31.6966 98.3032 31.7243 98.264 31.7464C98.2249 31.7685 98.1857 31.7851 98.1521 31.8016V32.1221C98.1913 32.1111 98.2417 32.0945 98.292 32.0724C98.3424 32.0503 98.3927 32.0282 98.4431 32.0006C98.4935 31.9729 98.5382 31.9453 98.583 31.9121C98.6277 31.879 98.6613 31.8458 98.6893 31.8127C98.7173 31.8458 98.7564 31.879 98.7956 31.9121C98.8404 31.9453 98.8851 31.9729 98.9355 32.0006C98.9858 32.0282 99.0362 32.0558 99.0865 32.0724C99.1369 32.0945 99.1817 32.1111 99.2264 32.1221V31.8016C99.1929 31.7906 99.1537 31.7685 99.1145 31.7464C99.0754 31.7243 99.0362 31.6966 99.0026 31.6635C98.969 31.6303 98.9355 31.5972 98.9131 31.5585C98.8907 31.5198 98.8795 31.4756 98.8795 31.4314V31.3872H99.2488V31.133H98.1298V31.3872H98.499V31.4314C98.499 31.4756 98.4879 31.5198 98.4655 31.5585Z" fill="#BF9517"/>
<path d="M15.0065 49.9487V51.0539H17.6587V46.9592H15.0065V48.0644H16.5396V49.9487H15.0065Z" fill="#BF9517"/>
<path d="M0 39.8418H4.62169V46.9592H2.22132V51.0539H3.32918V58H5.85265H7.81099H8.93004H9.28254V56.8948H8.93004V52.9383H9.28254V51.8331H8.93004H7.81099H5.85265V56.8948H4.44824V51.0539H9.28254V49.9487H3.34037V48.0644H4.62169H9.28254V46.9592H5.74074V39.8418H9.28254V38.7367H4.62169H1.11905V36.3108H9.28254V35.2056H0V39.8418Z" fill="#BF9517"/>
<path d="M16.092 16.4396H17.211H19.908V0H17.211H16.092H8.56076V16.4396H9.28815H10.6702V58H11.862H13.6301V16.4396H15.0121H16.092ZM17.211 1.10518H18.7889V15.3344H17.211V1.10518ZM10.6646 15.3344H9.67981V1.10518H10.6646V15.3344ZM13.6245 1.10518H15.0065H16.092V15.3344H15.0065H13.6245V1.10518Z" fill="#BF9517"/>
<path d="M111.055 52.8609H110.109V55.1542H111.055V52.8609Z" fill="#BF9517"/>
<path d="M114.032 52.8609H113.086V55.1542H114.032V52.8609Z" fill="#BF9517"/>
<path d="M120.919 52.8609H119.974V55.1542H120.919V52.8609Z" fill="#BF9517"/>
<path d="M123.896 52.8609H122.95V55.1542H123.896V52.8609Z" fill="#BF9517"/>
<path d="M127.337 52.8609H126.391V55.1542H127.337V52.8609Z" fill="#BF9517"/>
<path d="M130.314 52.8609H129.368V55.1542H130.314V52.8609Z" fill="#BF9517"/>
</g>
<defs>
<clipPath id="clip0_45_604">
<rect width="173" height="58" fill="white"/>
</clipPath>
</defs>
</svg>
