<svg width="173" height="48" viewBox="0 0 173 48" fill="none" xmlns="http://www.w3.org/2000/svg">
<g clip-path="url(#clip0_45_894)">
<path d="M168.983 35.7743V32.7739H159.124H154.429V35.7743H147.704V34.8377H151.234V31.0747H147.704V25.6236C147.704 25.4048 147.642 25.2029 147.542 25.0291L150.809 23.2906H151.229V19.7967H150.949V18.6078H147.698V16.858L162.699 15.2878L158.95 13.4595H158.906L147.704 10.1395V1.21136C147.704 0.543989 147.161 0 146.495 0C145.829 0 145.287 0.543989 145.287 1.21136V1.70487L140.145 8.21031L134.941 7.96916L129.312 1.69926V1.21136C129.312 0.543989 128.769 0 128.104 0C127.438 0 126.895 0.543989 126.895 1.21136V1.68805L120.27 8.1374L117.775 8.26639L115.156 8.12057L108.526 1.68805V1.21136C108.526 0.543989 107.983 0 107.317 0C106.651 0 106.109 0.543989 106.109 1.21136V1.67683L98.7564 8.15422L96.7086 8.26639L94.0844 8.11497L87.7393 1.68805V1.21136C87.7393 0.543989 87.1966 0 86.5308 0C85.8649 0 85.3222 0.543989 85.3222 1.21136V1.68805L78.966 8.11497L76.3977 8.26078L74.2995 8.14301L66.9529 1.67683V1.21136C66.9529 0.543989 66.4102 0 65.7444 0C65.0785 0 64.5358 0.543989 64.5358 1.21136V1.68805L57.9054 8.12618L55.3428 8.26639L52.7969 8.13179L46.1665 1.68805V1.21136C46.1665 0.543989 45.6238 0 44.958 0C44.2921 0 43.7494 0.543989 43.7494 1.21136V1.69366L38.1149 7.96916L32.9169 8.21031L27.7693 1.70487V1.21136C27.7693 0.543989 27.2266 0 26.5607 0C25.8949 0 25.3521 0.543989 25.3521 1.21136V10.1563L14.128 13.4819C14.0665 13.4988 14.0161 13.5268 13.9658 13.5661L9.00278 15.2597L25.3521 16.8973V18.6134H22.0453V19.8023H21.7656V23.2962H22.1852L25.5032 25.0571C25.4137 25.2254 25.3521 25.4217 25.3521 25.6292V31.0803H21.7656V34.8433H25.3521V35.7799H18.5707V32.7795H13.8763H4.0174V35.7799H0V36.1108V39.3242V39.9187L4.0174 40.6197V40.659L0.581908 40.8833L0 40.7879V40.9169V44.2538V44.3715L0.537145 44.3379L4.0174 44.8651V46.7943H0.559527V47.3551V47.9159H4.0174H13.8763H18.5707H24.0596L24.6583 48.0056V47.9159H35.7481H36.3077H136.373H136.933H148.336V48.0056L148.935 47.9159H154.429H159.124H168.983H172.127V47.3551V46.7943H168.983V44.8651L172.463 44.3379L173 44.3715V44.2482V40.9113V40.7823L172.418 40.8721L168.983 40.6477V40.6085L173 39.9075V39.313V36.0995V35.7687H168.983V35.7743ZM149.461 42.8798V41.7189V41.3488L171.881 37.4399V38.197V38.9709L149.461 42.8798ZM160.243 46.7886V46.1886L167.864 45.0277V46.783H160.243V46.7886ZM35.7481 46.7886H24.6583V44.5398L18.5707 43.6144V43.1658H18.6154L23.5393 44.0238V44.2874H33.7786H34.9424H35.7481V46.7886ZM5.13645 46.7886V45.0333L12.7572 46.1942V46.7943H5.13645V46.7886ZM12.7516 33.8955V38.3316L5.13645 37.0025V33.8955H12.7516ZM17.4516 39.1504L13.8763 38.5279V33.8955H17.4516V39.1504ZM30.1025 36.4921V34.8321H30.3823V36.4921H30.1025ZM138.998 36.4921V34.6919C138.998 34.5405 139.277 34.5405 139.277 34.6919V36.4921H138.998ZM33.7842 34.8377H34.064V36.4977H33.7842V34.8377ZM37.7401 34.8377V36.4977H37.4603V34.8377H37.7401ZM41.4161 34.8377V36.4977H41.1364V34.8377H41.4161ZM45.607 34.8377V36.4977H44.3089V34.8377H45.607ZM52.0248 36.4921H51.745V34.6919C51.745 34.5405 52.0248 34.5405 52.0248 34.6919V36.4921ZM58.9517 36.4921H58.672V34.6919C58.672 34.5405 58.9517 34.5405 58.9517 34.6919V36.4921ZM66.3934 34.8377V36.2173H65.0953V34.8377H66.3934ZM72.8112 36.4921H72.5314V34.6919C72.5314 34.5405 72.8112 34.5405 72.8112 34.6919V36.4921ZM79.7381 36.4921H79.4584V34.6919C79.4584 34.5405 79.7381 34.5405 79.7381 34.6919V36.4921ZM87.1798 34.8377V36.2173H85.8817V34.8377H87.1798ZM93.5976 36.4921H93.3178V34.6919C93.3178 34.5405 93.5976 34.5405 93.5976 34.6919V36.4921ZM100.525 36.4921H100.245V34.6919C100.245 34.5405 100.525 34.5405 100.525 34.6919V36.4921ZM107.966 34.8377V36.2173H106.668V34.8377H107.966ZM114.384 36.4921H114.104V34.6919C114.104 34.5405 114.384 34.5405 114.384 34.6919V36.4921ZM121.311 36.4921H121.031V34.6919C121.031 34.5405 121.311 34.5405 121.311 34.6919V36.4921ZM128.753 34.8377V36.4977H127.455V34.8377H128.753ZM131.92 36.4921H131.64V34.6919C131.64 34.5405 131.92 34.5405 131.92 34.6919V36.4921ZM135.596 36.4921H135.316V34.6919C135.316 34.5405 135.596 34.5405 135.596 34.6919V36.4921ZM142.679 36.4921V34.6919C142.679 34.5405 142.959 34.5405 142.959 34.6919V36.4921H142.679ZM147.144 36.4921H145.846V34.8321H147.144V36.4921ZM145.287 35.7743H143.513V34.8377H145.287V35.7743ZM142.12 35.7743H139.837V34.8377H142.12V35.7743ZM137.783 35.7743H136.155V34.8377H137.783V35.7743ZM134.762 35.7743H132.479V34.8377H134.762V35.7743ZM131.08 35.7743H129.307V34.8377H131.08V35.7743ZM126.889 35.7743H125.144V34.8377H126.889V35.7743ZM124.025 35.7743H121.865V34.8377H124.025V35.7743ZM120.472 35.7743H114.938V34.8377H120.472V35.7743ZM113.545 35.7743H108.526V34.8377H113.545V35.7743ZM106.103 35.7743H101.084V34.8377H106.103V35.7743ZM99.6852 35.7743H94.1515V34.8377H99.6852V35.7743ZM92.7583 35.7743H87.7393V34.8377H92.7583V35.7743ZM85.3166 35.7743H80.2976V34.8377H85.3166V35.7743ZM78.9044 35.7743H73.3707V34.8377H78.9044V35.7743ZM71.9719 35.7743H66.9529V34.8377H71.9719V35.7743ZM64.5302 35.7743H59.5112V34.8377H64.5302V35.7743ZM58.118 35.7743H52.5843V34.8377H58.118V35.7743ZM51.1855 35.7743H48.7012V34.8377H51.1855V35.7743ZM47.5877 35.7743H46.1665V34.8377H47.5877V35.7743ZM43.7494 35.7743H41.9757V34.8377H43.7494V35.7743ZM40.5825 35.7743H38.2996V34.8377H40.5825V35.7743ZM36.9008 35.7743H34.948V34.8377H36.9008V35.7743ZM33.2247 35.7743H30.9418V34.8377H33.2247V35.7743ZM29.543 35.7743H27.7693V34.8377H29.543V35.7743ZM27.2154 34.8377V36.4977H25.9173V34.8377H27.2154ZM27.7749 37.0529V36.8959H29.5486V37.0529H30.9474V36.8959H33.2303V37.0529H33.8346V37.3333H47.5933H125.155H138.914V37.0529H139.842V36.8959H142.12V37.0529H143.519V36.8959H145.292V37.0529H147.709V36.8959H154.429V38.197H148.342V39.3186V40.4066V42.7676V43.1602H136.939H35.7481H34.9424V38.1914H34.8977H23.5393H18.5707V36.8903H25.3521V37.0473H27.7749V37.0529ZM167.864 33.8955V37.0025L160.243 38.3316V33.8955H167.864ZM159.124 42.8966L155.548 43.4406V42.9583L159.124 42.3358V42.8966ZM160.243 42.7284V42.1395L167.864 40.8104V41.5675L160.243 42.7284ZM145.846 46.7886V44.0519H147.144V46.7886H145.846ZM127.449 47.069V44.0519H128.747V47.069H127.449ZM106.663 47.069V44.0519H107.961V47.069H106.663ZM85.8761 47.069V44.0519H87.1742V47.069H85.8761ZM65.0953 47.069V44.0519H66.3934V47.069H65.0953ZM44.3089 47.069V44.0519H45.607V47.069H44.3089ZM13.8707 42.8966V42.3302L17.446 42.9527V43.435L13.8707 42.8966ZM12.7516 42.1395V42.7284L5.13645 41.5675V40.8104L12.7516 42.1395ZM24.6583 42.7676V40.4066V39.3186H33.7786H33.8234V43.1658H24.6583V42.7676ZM18.5707 39.3467V39.3186H23.5393V39.3915L20.1038 39.6158L18.5707 39.3467ZM46.1665 44.2874H64.5358V46.7886H46.1665V44.2874ZM66.9529 44.2874H85.3222V46.7886H66.9529V44.2874ZM87.7393 44.2874H106.109V46.7886H87.7393V44.2874ZM108.526 44.2874H126.895V46.7886H108.526V44.2874ZM149.461 39.3915V39.3186H154.429V39.3467L152.896 39.6158L149.461 39.3915ZM159.124 38.5279L155.548 39.1504V33.8955H159.124V38.5279ZM1.11905 38.9709V38.197V37.4399L23.5393 41.3488V41.7189V42.8798L1.11905 38.9709ZM1.11905 43.2836V43.1658V42.089L23.5393 45.4988V46.6933L1.11905 43.2836ZM13.8707 46.3624L16.6795 46.7886H13.8707V46.3624ZM36.8672 44.2874H43.7438V46.7886H36.8672V44.2874ZM135.814 46.7886H129.307V44.2874H135.814V46.7886ZM136.933 44.2874H145.281V46.7886H136.933V44.2874ZM147.704 44.2874H149.461V44.0238L154.385 43.1658L154.429 43.1714V43.62L148.342 44.5454V46.7943H147.704V44.2874ZM159.124 46.3624V46.7886H156.315L159.124 46.3624ZM149.461 46.6933V45.4988L171.881 42.089V43.1658V43.2836L149.461 46.6933ZM26.5607 24.973C26.9188 24.973 27.2098 25.2646 27.2098 25.6236V31.0747H25.9117V25.6236C25.9117 25.2646 26.2026 24.973 26.5607 24.973ZM27.7749 26.2573L29.5486 27.1994V31.0747H27.7749V26.2573ZM30.3823 31.3551H30.1025V25.2759C30.1025 25.1244 30.3823 25.1244 30.3823 25.2759V31.3551ZM30.9418 27.9397L33.2247 29.1511V31.0747H30.9418V27.9397ZM34.0584 31.3551H33.7786V25.2759C33.7786 25.1244 34.0584 25.1244 34.0584 25.2759V31.3551ZM34.948 29.6951H36.9008V31.0747H34.948V29.6951ZM37.7401 31.3551H37.4603V25.2759C37.4603 25.1244 37.7401 25.1244 37.7401 25.2759V31.3551ZM38.2996 29.6951H40.5825V31.0747H38.2996V29.6951ZM41.4161 31.3551H41.1364V25.2759C41.1364 25.1244 41.4161 25.1244 41.4161 25.2759V31.3551ZM41.9757 29.6951H43.7494V31.0747H41.9757V29.6951ZM41.584 22.1689H22.8846V20.9183H42.2554V22.1689H41.584ZM26.5607 0.560813C26.9188 0.560813 27.2098 0.852436 27.2098 1.21136V11.8556L25.9117 11.7322V1.21136C25.9117 0.852436 26.2026 0.560813 26.5607 0.560813ZM27.7749 12.4725V10.6106L31.9154 9.3824L33.0904 9.32632L34.6011 11.2331L26.1914 14.3624C23.4162 14.1045 20.4955 13.8745 17.4628 13.6614L25.3633 11.3228V12.2369L27.7749 12.4725ZM44.958 0.560813C45.3161 0.560813 45.607 0.852436 45.607 1.21136V10.4592L44.3089 10.5601V1.21136C44.3089 0.852436 44.5999 0.560813 44.958 0.560813ZM65.7444 0.560813C66.1025 0.560813 66.3934 0.852436 66.3934 1.21136V9.7245L65.0897 9.53382V1.21136C65.0897 0.852436 65.3863 0.560813 65.7444 0.560813ZM86.5308 0.560813C86.8889 0.560813 87.1798 0.852436 87.1798 1.21136V9.60112L86.5028 9.932L85.8761 9.60673V1.21136C85.8761 0.852436 86.1671 0.560813 86.5308 0.560813ZM107.312 0.560813C107.67 0.560813 107.961 0.852436 107.961 1.21136V9.53382L106.663 9.7245V1.21136C106.663 0.852436 106.953 0.560813 107.312 0.560813ZM128.098 0.560813C128.456 0.560813 128.747 0.852436 128.747 1.21136V10.5601L127.449 10.4592V1.21136C127.449 0.852436 127.74 0.560813 128.098 0.560813ZM146.495 0.560813C146.853 0.560813 147.144 0.852436 147.144 1.21136V11.7322L145.846 11.8556V1.21136C145.846 0.852436 146.137 0.560813 146.495 0.560813ZM141.197 9.3824L145.287 10.5938V12.4669L147.704 12.2369V11.306L155.655 13.6614C152.622 13.8745 149.701 14.1045 146.926 14.3624L138.477 11.2219L139.977 9.32632L141.197 9.3824ZM41.3546 14.4017C38.8759 14.626 36.3916 14.884 33.9633 15.1644C32.2623 14.9681 30.5166 14.783 28.7541 14.6092L43.755 9.0347V11.1714L46.1721 10.9863V8.91693L52.9704 9.27585L41.3546 14.4017ZM129.312 11.1658V9.01227L144.363 14.6092C142.601 14.783 140.855 14.9681 139.154 15.1644C136.849 14.8952 134.359 14.6428 131.763 14.4017L120.147 9.26463L126.895 8.91132V10.9807L129.312 11.1658ZM137.923 11.02L137.554 10.8854L135.993 9.14686L139.289 9.30389L137.923 11.02ZM136.424 10.4592L132.423 8.97301L135.21 9.102L136.424 10.4592ZM117.635 9.3824L118.564 9.7918L117.719 10.6106L116.382 9.3095L117.635 9.3824ZM117.719 11.3957L119.112 10.0386L128.294 14.0988C124.092 13.7455 119.7 13.4539 115.195 13.2128L109.147 8.91132L115.531 9.26463L117.719 11.3957ZM106.103 8.86646V10.3694L108.52 10.0161V9.84227L113.108 13.1006C108.979 12.8987 104.727 12.7417 100.435 12.6351L98.0067 9.55626L98.3032 9.29267L106.103 8.86646ZM96.4288 9.37119L96.8149 9.8647L96.2833 10.3358L95.265 9.3095L96.4288 9.37119ZM96.2553 11.1041L97.1618 10.3021L97.5143 10.7508L98.9802 12.6071C95.0803 12.523 91.0965 12.4781 87.1071 12.4725V10.2573L87.7338 9.94883V8.87206L94.4313 9.25903L96.2553 11.1041ZM85.3166 8.87767V9.94883L85.988 10.3021V12.4781C82.0042 12.4837 78.0204 12.5286 74.1205 12.6127L75.5864 10.7564L75.9165 10.3358L76.795 11.1097L78.6191 9.26463L85.3166 8.87767ZM76.7726 10.3358L76.2691 9.89274L76.6775 9.3768L77.7854 9.31511L76.7726 10.3358ZM75.0829 9.58991L72.6769 12.6407C68.3238 12.7473 64.0714 12.9043 60.0036 13.1062L64.5358 9.88714V10.0217L66.9529 10.375V8.86646L74.7527 9.29828L75.0829 9.58991ZM63.9651 8.91132L57.9166 13.2128C53.4124 13.4483 49.0201 13.7455 44.8181 14.0988L53.9607 10.0554L55.3428 11.3957L57.5305 9.27024L63.9651 8.91132ZM55.3372 10.6106L54.5091 9.80301L55.4715 9.3768L56.6744 9.3095L55.3372 10.6106ZM40.6832 8.97301L36.6042 10.4872L37.8464 9.102L40.6832 8.97301ZM35.474 10.9078L35.1439 11.0312L33.773 9.29828L37.063 9.14125L35.474 10.9078ZM14.363 14.5868C18.5091 14.8503 22.493 15.1532 26.2026 15.4953C28.81 15.7308 31.4006 16 33.8905 16.286C33.9129 16.286 33.9353 16.2916 33.9521 16.2916C33.9689 16.2916 33.9968 16.2916 34.0136 16.286C36.4811 16 39.0102 15.742 41.5337 15.5121C46.7708 15.0242 52.3493 14.626 58.118 14.3232C62.8348 14.0708 67.8202 13.8801 72.9455 13.7567C77.3937 13.6502 81.965 13.5941 86.5364 13.5941C91.1077 13.5941 95.679 13.6502 100.133 13.7567C105.174 13.8801 110.16 14.0708 114.96 14.3232C120.729 14.626 126.313 15.0242 131.55 15.5121C134.197 15.7532 136.72 16.0168 139.059 16.286C139.081 16.2916 139.109 16.2916 139.132 16.2916C139.16 16.2916 139.188 16.2916 139.21 16.286C141.7 16 144.28 15.7308 146.881 15.4953C150.529 15.1588 154.446 14.8559 158.519 14.598L139.126 16.6281C121.831 14.8279 104.223 13.9082 86.7937 13.897C86.7042 13.897 86.6203 13.897 86.5364 13.897C69.0176 13.897 51.3198 14.8167 33.9409 16.6281L14.1672 14.6428L14.363 14.5868ZM130.739 22.1689V20.9183H150.11V22.1689H131.41H130.739ZM121.031 25.2759C121.031 25.1244 121.311 25.1244 121.311 25.2759V31.3495H121.031V25.2759ZM121.171 24.5804C120.785 24.5804 120.472 24.8945 120.472 25.2815V28.579H114.938V25.2815C114.938 24.8945 114.625 24.5804 114.239 24.5804C113.852 24.5804 113.539 24.8945 113.539 25.2815V28.579H108.52V25.6292C108.52 24.9618 107.977 24.4178 107.312 24.4178C106.646 24.4178 106.103 24.9618 106.103 25.6292V28.579H101.084V25.2815C101.084 24.8945 100.771 24.5804 100.385 24.5804C99.9986 24.5804 99.6852 24.8945 99.6852 25.2815V28.579H94.1515V25.2815C94.1515 24.8945 93.8382 24.5804 93.4521 24.5804C93.066 24.5804 92.7527 24.8945 92.7527 25.2815V28.579H87.7338V25.6292C87.7338 24.9618 87.191 24.4178 86.5252 24.4178C85.8593 24.4178 85.3166 24.9618 85.3166 25.6292V28.579H80.2976V25.2815C80.2976 24.8945 79.9843 24.5804 79.5982 24.5804C79.2122 24.5804 78.8988 24.8945 78.8988 25.2815V28.579H73.3651V25.2815C73.3651 24.8945 73.0518 24.5804 72.6657 24.5804C72.2796 24.5804 71.9663 24.8945 71.9663 25.2815V28.579H66.9473V25.6292C66.9473 24.9618 66.4046 24.4178 65.7388 24.4178C65.0729 24.4178 64.5302 24.9618 64.5302 25.6292V28.579H59.5112V25.2815C59.5112 24.8945 59.1979 24.5804 58.8118 24.5804C58.4258 24.5804 58.1124 24.8945 58.1124 25.2815V28.579H52.5787V25.2815C52.5787 24.8945 52.2654 24.5804 51.8793 24.5804C51.4932 24.5804 51.1799 24.8945 51.1799 25.2815V28.579H48.6564L46.7317 26.375L46.1553 25.7133V25.6236C46.1553 24.9842 45.6518 24.4627 45.0251 24.4178L44.0403 23.2906H128.937L127.947 24.4234C127.348 24.4963 126.878 25.0011 126.878 25.6236V25.646L126.246 26.3694L124.321 28.5734H121.859V25.2759C121.87 24.8889 121.557 24.5804 121.171 24.5804ZM114.104 25.2759C114.104 25.1244 114.384 25.1244 114.384 25.2759V31.3495H114.104V25.2759ZM106.663 31.0747V25.6236C106.663 25.2646 106.953 24.973 107.312 24.973C107.67 24.973 107.961 25.2646 107.961 25.6236V31.0747H106.663ZM100.245 25.2759C100.245 25.1244 100.525 25.1244 100.525 25.2759V31.3495H100.245V25.2759ZM93.3178 25.2759C93.3178 25.1244 93.5976 25.1244 93.5976 25.2759V31.3495H93.3178V25.2759ZM85.8761 31.0747V25.6236C85.8761 25.2646 86.1671 24.973 86.5252 24.973C86.8833 24.973 87.1742 25.2646 87.1742 25.6236V31.0747H85.8761ZM79.464 25.2759C79.464 25.1244 79.7437 25.1244 79.7437 25.2759V31.3495H79.464V25.2759ZM72.5314 25.2759C72.5314 25.1244 72.8112 25.1244 72.8112 25.2759V31.3495H72.5314V25.2759ZM65.0897 31.0747V25.6236C65.0897 25.2646 65.3807 24.973 65.7388 24.973C66.0969 24.973 66.3878 25.2646 66.3878 25.6236V31.0747H65.0897ZM58.6775 25.2759C58.6775 25.1244 58.9573 25.1244 58.9573 25.2759V31.3495H58.6775V25.2759ZM51.745 25.2759C51.745 25.1244 52.0248 25.1244 52.0248 25.2759V31.3495H51.745V25.2759ZM44.958 24.973C45.3161 24.973 45.607 25.2646 45.607 25.6236V31.0747H44.3089V25.6236C44.3089 25.2646 44.5999 24.973 44.958 24.973ZM128.753 25.6236V31.0747H127.455V25.6236C127.455 25.2646 127.745 24.973 128.104 24.973C128.462 24.973 128.753 25.2646 128.753 25.6236ZM42.2554 19.8023H27.7749V19.1742H42.5408V19.8023H42.2554ZM64.5302 19.8023H46.1665V19.1742H64.5358V19.8023H64.5302ZM85.3166 19.8023H66.9473V19.1742H85.3166V19.8023ZM106.103 19.8023H87.7338V19.1742H106.103V19.8023ZM126.889 19.8023H108.52V19.1742H126.889V19.8023ZM129.62 19.8023H129.307V19.1742H129.9V19.8023H129.62ZM130.739 19.8023H130.459V19.1742H145.281V19.8023H130.739ZM130.459 18.6134H129.9H129.307V16.8412C132.574 17.116 135.836 17.4132 139.087 17.7553L139.143 17.761L145.281 17.116V18.6134H130.459ZM128.753 20.0827H127.455V16.6842C127.891 16.7178 128.322 16.7571 128.753 16.7964V20.0827ZM126.889 18.6134H108.52V15.5121C114.653 15.7757 120.779 16.1514 126.889 16.6393V18.6134ZM107.966 20.0827H106.668V15.428C107.099 15.4448 107.535 15.4672 107.966 15.4897V20.0827ZM106.103 18.6134H87.7338V15.0298C93.8438 15.0466 99.9706 15.17 106.103 15.4055V18.6134ZM87.1798 20.0827H85.8817V15.0298C86.1055 15.0298 86.3349 15.0242 86.5587 15.0242C86.6427 15.0242 86.7322 15.0242 86.8161 15.0242C86.9392 15.0242 87.0567 15.0242 87.1798 15.0242V20.0827ZM85.3166 18.6134H66.9473V15.4055C73.0742 15.17 79.2066 15.0466 85.3166 15.0298V18.6134ZM66.3934 20.0827H65.0953V15.4897C65.5261 15.4728 65.9626 15.4504 66.3934 15.428V20.0827ZM64.5302 18.6134H46.1665V16.6393C52.271 16.1514 58.3978 15.7813 64.5358 15.5121V18.6134H64.5302ZM45.607 20.0827H44.3089V16.7964C44.7397 16.7627 45.1762 16.7234 45.607 16.6842V20.0827ZM43.7494 18.6134H43.1003H42.5408H27.7749V17.1385L33.9633 17.761L34.0192 17.7553C37.2533 17.4189 40.4985 17.1216 43.7494 16.8468V18.6134ZM43.0947 19.1742H43.7438V19.8023H43.3745H43.0947V19.1742ZM43.3745 20.9239H129.62V22.1746H43.3745V20.9239ZM46.1665 27.4182L47.1793 28.579H46.1665V27.4182ZM126.889 27.3509V28.5734H125.821L126.889 27.3509ZM147.144 20.0827H145.846V17.0599L147.144 16.9253V20.0827ZM27.2154 17.0824V20.0827H25.9173V16.9534L27.2154 17.0824ZM46.1665 29.6951H47.5877V31.0747H46.1665V29.6951ZM48.7068 29.6951H51.1911V31.0747H48.7068V29.6951ZM52.5843 29.6951H58.118V31.0747H52.5843V29.6951ZM59.5112 29.6951H64.5302V31.0747H59.5112V29.6951ZM66.9529 29.6951H71.9719V31.0747H66.9529V29.6951ZM73.3707 29.6951H78.9044V31.0747H73.3707V29.6951ZM80.2976 29.6951H85.3166V31.0747H80.2976V29.6951ZM87.7393 29.6951H92.7583V31.0747H87.7393V29.6951ZM94.1571 29.6951H99.6908V31.0747H94.1571V29.6951ZM101.084 29.6951H106.103V31.0747H101.084V29.6951ZM108.526 29.6951H113.545V31.0747H108.526V29.6951ZM114.944 29.6951H120.477V31.0747H114.944V29.6951ZM121.87 29.6951H124.03V31.0747H121.87V29.6951ZM125.144 29.6951H126.889V31.0747H125.144V29.6951ZM129.312 29.6951H131.086V31.0747H129.312V29.6951ZM131.92 31.3551H131.64V25.2759C131.64 25.1244 131.92 25.1244 131.92 25.2759V31.3551ZM132.479 29.6951H134.762V31.0747H132.479V29.6951ZM135.596 31.3551H135.316V25.2759C135.316 25.1244 135.596 25.1244 135.596 25.2759V31.3551ZM136.155 29.6951H137.783V31.0747H136.155V29.6951ZM139.277 31.3551H138.998V25.2759C138.998 25.1244 139.277 25.1244 139.277 25.2759V31.3551ZM139.837 29.123L142.12 27.9117V31.0747H139.837V29.123ZM142.953 31.3551H142.679V25.2759C142.679 25.1244 142.959 25.1244 142.959 25.2759V31.3551H142.953ZM143.513 27.1658L145.287 26.2236V31.0691H143.513V27.1658ZM147.144 25.6236V31.0747H145.846V25.6236C145.846 25.2646 146.137 24.973 146.495 24.973C146.853 24.973 147.144 25.2646 147.144 25.6236ZM146.271 24.4346C146.025 24.4795 145.807 24.6029 145.639 24.7711L143.519 25.8984V25.2759C143.519 24.8889 143.205 24.5748 142.819 24.5748C142.433 24.5748 142.12 24.8889 142.12 25.2759V26.6386L139.837 27.85V25.2759C139.837 24.8889 139.524 24.5748 139.137 24.5748C138.751 24.5748 138.438 24.8889 138.438 25.2759V28.5734H136.155V25.2759C136.155 24.8889 135.842 24.5748 135.456 24.5748C135.07 24.5748 134.756 24.8889 134.756 25.2759V28.5734H132.473V25.2759C132.473 24.8889 132.16 24.5748 131.774 24.5748C131.388 24.5748 131.075 24.8889 131.075 25.2759V28.5734H129.301V25.6236C129.301 25.3431 129.2 25.0852 129.038 24.8777L130.426 23.2906H130.733H148.414L146.271 24.4346ZM150.395 19.1742V19.8023H147.704V19.1742H150.395ZM145.287 2.60778V9.42166L141.448 8.28321C141.404 8.27199 141.359 8.26078 141.314 8.26078L140.827 8.23835L145.287 2.60778ZM134.152 7.9299L129.307 7.69997V2.53488L134.152 7.9299ZM126.889 2.46758V7.78409L121.11 8.08693L126.889 2.46758ZM114.3 8.07571L108.526 7.75605V2.46758L114.3 8.07571ZM106.103 2.42271V7.74483L99.6629 8.10375L106.103 2.42271ZM93.2563 8.06449L87.7393 7.75044V2.4844L93.2563 8.06449ZM85.3166 2.4844V7.75044L79.7941 8.0701L85.3166 2.4844ZM73.3875 8.09814L66.9473 7.73922V2.42271L73.3875 8.09814ZM64.5302 2.46758V7.75605L58.7503 8.07571L64.5302 2.46758ZM51.9408 8.08693L46.1665 7.78409V2.46758L51.9408 8.08693ZM43.7494 2.53488V7.70557L38.9039 7.93551L43.7494 2.53488ZM32.2287 8.24395L31.7923 8.26639C31.7475 8.26639 31.7028 8.2776 31.658 8.28882L27.7693 9.43849V2.60778L32.2287 8.24395ZM22.6049 19.1742H25.3521V19.8023H22.6049V19.1742ZM42.2554 23.2906H42.5632L43.9788 24.9113C43.8333 25.1132 43.7438 25.3544 43.7438 25.6179V28.5678H41.9701V25.2702C41.9701 24.8833 41.6567 24.5692 41.2707 24.5692C40.8846 24.5692 40.5713 24.8833 40.5713 25.2702V28.5678H38.2884V25.2702C38.2884 24.8833 37.9751 24.5692 37.589 24.5692C37.2029 24.5692 36.8896 24.8833 36.8896 25.2702V28.5678H34.6067V25.2702C34.6067 24.8833 34.2934 24.5692 33.9073 24.5692C33.5212 24.5692 33.2079 24.8833 33.2079 25.2702V27.878L30.925 26.6667V25.2702C30.925 24.8833 30.6117 24.5692 30.2256 24.5692C29.8395 24.5692 29.5262 24.8833 29.5262 25.2702V25.9208L27.4504 24.816C27.2601 24.5973 26.9972 24.4515 26.695 24.4178L24.5576 23.285H42.2554V23.2906ZM22.8846 32.1963H33.8234H47.5821H125.144H138.902H150.11V33.7161H138.902H125.144H47.5877H33.829H22.8846V32.1963Z" fill="#BF9517"/>
</g>
<defs>
<clipPath id="clip0_45_894">
<rect width="173" height="48" fill="white"/>
</clipPath>
</defs>
</svg>
